<?xml version="1.0" encoding="UTF-8" standalone="no"?>
<svg width="79px" height="155px" viewBox="0 0 79 155" version="1.1" xmlns="http://www.w3.org/2000/svg" xmlns:xlink="http://www.w3.org/1999/xlink">
    <!-- Generator: Sketch 3.7 (28169) - http://www.bohemiancoding.com/sketch -->
    <title>Capitulo1</title>
    <desc>Created with Sketch.</desc>
    <defs></defs>
    <g id="Page-1" stroke="none" stroke-width="1" fill="none" fill-rule="evenodd">
        <g id="cap1" transform="translate(-34.000000, -6.000000)" fill="#FF2600">
            <path d="M67.35,6.77 C70.12,6.86 72.26,6.97 74.41,6.97 C76.19,6.97 77.97,6.73 79.73,6.8 C80.91,6.84 82.09,7.16 83.23,7.48 C84.73,7.91 86.26,8.31 87.65,9 C89.33,9.84 91.09,10.52 92.45,12.02 C93.31,12.97 93.68,14.2 94.58,15.03 C95.67,16.02 96.15,17.36 96.83,18.57 C97.56,19.88 98.04,21.3 98.35,22.79 C98.6,23.97 99.15,25.08 99.48,26.25 C100.15,28.6 100.81,30.95 101.39,33.32 C101.75,34.76 102.06,36.24 102.19,37.71 C102.3,39.02 102.11,40.36 102.09,41.68 C102.08,42.53 102.19,43.37 102.17,44.22 C102.15,44.95 101.96,45.66 101.93,46.39 C101.9,47.04 101.99,47.7 102,48.35 C102.03,50.41 102.02,52.48 102.08,54.55 C102.14,56.48 102.12,58.42 102.43,60.31 C102.64,61.59 101.96,62.7 102.18,63.95 C102.32,64.75 102.21,65.59 102.15,66.42 C102.02,68.26 101.86,70.09 101.71,71.93 C101.56,73.75 101.46,75.57 101.27,77.38 C101.17,78.37 100.9,79.35 100.75,80.34 C100.67,80.85 100.83,81.46 100.61,81.88 C99.98,83.06 100.46,84.39 99.93,85.6 C99.63,86.3 99.79,87.19 99.66,87.98 C99.49,89.04 99.21,90.09 99.03,91.15 C98.71,93.02 98.49,94.9 98.09,96.75 C97.69,98.63 97.51,100.58 96.43,102.28 C95.88,103.14 95.68,104.21 95.19,105.11 C94.71,106.01 94.08,106.83 93.5,107.67 C92.87,108.59 92.25,109.52 91.59,110.41 C91.28,110.82 90.89,111.19 90.5,111.52 C88.89,112.89 87.44,114.48 85.43,115.29 C84.3,115.75 83.25,116.45 81.96,116.47 C81.74,116.47 81.54,116.73 81.3,116.8 C80.69,116.98 80.07,117.15 79.44,117.27 C78.25,117.49 77.02,117.58 75.86,117.9 C74.31,118.32 72.79,118.31 71.25,117.97 C69.99,117.69 68.8,117.13 67.43,117.24 C66.82,117.29 66.17,116.88 65.53,116.7 C65.08,116.57 64.63,116.48 64.18,116.35 C62.53,115.89 61,115.11 59.6,114.17 C58.49,113.43 57.47,112.53 56.55,111.56 C55.53,110.48 54.63,109.27 53.74,108.08 C53.08,107.2 52.47,106.27 51.9,105.32 C51.52,104.68 51.24,103.97 50.93,103.29 C50.63,102.61 50.34,101.93 50.09,101.23 C49.75,100.3 49.37,99.37 49.14,98.4 C48.9,97.39 48.84,96.34 48.68,95.32 C48.38,93.42 48.05,91.53 47.75,89.63 C47.55,88.36 47.35,87.08 47.17,85.8 C47.03,84.8 47.2,83.65 46.76,82.82 C46.05,81.49 46.45,80.04 45.94,78.69 C45.52,77.57 45.63,76.25 45.48,75.02 C45.43,74.59 45.25,74.17 45.23,73.73 C45.19,73.05 45.19,72.36 45.22,71.67 C45.33,69.7 45.06,67.78 44.7,65.84 C44.53,64.96 44.73,64.02 44.77,63.1 C44.77,62.99 44.86,62.86 44.82,62.78 C44.14,61.37 44.72,59.9 44.6,58.46 C44.51,57.25 44.81,56.02 44.9,54.79 C44.94,54.27 44.92,53.75 44.92,53.23 C44.94,51.49 44.98,49.75 44.96,48.01 C44.95,46.8 44.81,45.6 44.79,44.39 C44.76,42.87 44.75,41.35 44.81,39.83 C44.87,38.25 44.84,36.64 45.14,35.1 C45.55,33.04 46.23,31.02 46.79,28.99 C47.08,27.95 47.34,26.89 47.64,25.85 C47.87,25.06 48.14,24.28 48.38,23.48 C48.72,22.35 49.01,21.2 49.38,20.08 C49.55,19.57 49.81,19.09 50.09,18.63 C50.86,17.34 51.49,15.96 52.53,14.82 C53.02,14.28 53.25,13.51 53.7,12.91 C54.09,12.39 54.61,11.97 55.08,11.52 C56.43,10.23 58.13,9.56 59.83,8.89 C60.61,8.58 61.35,8.16 62.14,7.86 C62.71,7.65 63.31,7.53 63.91,7.41 C65.24,7.13 66.6,6.9 67.35,6.77 L67.35,6.77 Z M48.92,56.86 C48.98,57.06 49.18,57.38 49.14,57.65 C48.93,59.04 48.91,60.41 48.96,61.82 C49.03,63.72 49.06,65.6 49.44,67.47 C49.5,67.76 49.4,68.07 49.41,68.37 C49.5,69.89 49.59,71.41 49.71,72.92 C49.81,74.18 49.91,75.44 50.06,76.7 C50.11,77.1 50.35,77.47 50.43,77.87 C50.61,78.8 50.74,79.74 50.87,80.67 C50.89,80.8 50.8,80.94 50.8,81.07 C50.82,81.39 50.85,81.71 50.89,82.04 C50.91,82.23 50.94,82.42 50.96,82.6 C51.06,83.47 51.05,84.36 51.26,85.2 C51.77,87.25 52.43,89.26 52.91,91.31 C53.3,92.95 53.6,94.62 53.8,96.29 C54.14,99.09 55.57,101.48 56.87,103.84 C57.65,105.25 58.57,106.75 60.17,107.69 C61.12,108.25 61.85,109.23 62.96,109.67 C63.85,110.02 64.67,110.55 65.55,110.93 C66.14,111.19 66.78,111.38 67.41,111.49 C68.51,111.69 69.7,111.61 70.72,112 C71.85,112.43 72.95,112.5 74.07,112.41 C74.88,112.35 75.67,112.05 76.47,111.93 C77.63,111.75 78.81,111.64 79.98,111.5 C80.03,111.49 80.08,111.46 80.13,111.43 C81.48,110.78 82.83,110.12 84.19,109.49 C84.45,109.37 84.85,109.48 85.05,109.32 C86.04,108.54 86.99,107.7 87.94,106.87 C88.04,106.78 88.13,106.67 88.21,106.55 C89.23,104.93 90.53,103.49 91.2,101.65 C91.78,100.04 92.56,98.48 93,96.83 C93.61,94.54 93.99,92.18 94.48,89.86 C94.73,88.66 95.01,87.47 95.31,86.28 C95.43,85.8 95.69,85.34 95.76,84.85 C96,83.26 96.16,81.65 96.38,80.05 C96.54,78.9 96.78,77.75 96.91,76.59 C97.07,75.17 97.17,73.74 97.26,72.31 C97.35,70.77 97.39,69.23 97.47,67.69 C97.5,67.13 97.58,66.58 97.67,66.02 C97.76,65.41 97.92,64.8 97.97,64.18 C98.03,63.55 97.97,62.92 98,62.29 C98.04,61.47 98.22,60.65 98.15,59.84 C98.07,58.81 97.5,57.8 98.13,56.76 C98.17,56.69 98.02,56.51 97.99,56.38 C97.93,56.08 97.86,55.78 97.85,55.47 C97.8,54.39 97.73,53.3 97.73,52.22 C97.72,50.21 97.77,48.2 97.78,46.19 C97.79,44.07 97.77,41.96 97.79,39.85 C97.8,39.13 98.04,38.36 97.89,37.68 C97.43,35.59 96.82,33.53 96.29,31.46 C96.02,30.41 95.8,29.35 95.54,28.3 C95.49,28.09 95.37,27.89 95.3,27.68 C94.97,26.6 94.65,25.52 94.31,24.44 C94.05,23.59 93.9,22.67 93.47,21.92 C92.62,20.46 91.43,19.19 90.7,17.68 C90.03,16.29 88.94,15.5 87.73,14.79 C86.88,14.28 85.93,13.91 85,13.54 C84.1,13.19 83.18,12.85 82.23,12.64 C81.22,12.41 80.18,12.2 79.15,12.21 C77.93,12.22 76.71,12.55 75.49,12.58 C73.52,12.62 71.53,12.65 69.59,12.42 C68.37,12.27 67.19,12.01 65.99,12.35 C64.58,12.74 63.17,13.16 61.78,13.62 C61.43,13.74 61.14,14.2 60.81,14.22 C59.8,14.28 59.14,14.96 58.33,15.38 C56.99,16.07 56.52,17.36 55.73,18.43 C55.17,19.19 54.73,20.05 54.26,20.88 C53.81,21.67 53.29,22.45 52.98,23.3 C52.58,24.41 52.37,25.58 52.04,26.71 C51.89,27.24 51.57,27.72 51.44,28.25 C51.03,29.86 50.7,31.48 50.29,33.09 C49.97,34.34 49.48,35.54 49.25,36.8 C49.08,37.77 49.19,38.79 49.18,39.79 C49.18,41.37 49.17,42.95 49.19,44.53 C49.21,46.68 49.29,48.84 49.28,51 C49.27,52.33 49.14,53.67 49.06,55 C49.03,55.59 48.97,56.2 48.92,56.86 Z M71.97,154.63 L71.97,150.12 C71.97,148.39 71.95,146.66 71.96,144.92 C71.97,142.55 72.03,140.18 72,137.82 C71.98,136.84 71.71,135.86 71.65,134.88 C71.62,134.4 71.86,133.92 71.92,133.43 C71.97,133.05 71.93,132.66 71.93,132.29 C71.07,132.19 70.32,132.1 69.58,132.01 C68.77,131.91 67.99,131.97 67.17,131.48 C66.48,131.07 65.44,131.26 64.56,131.18 C64.31,131.16 64.04,131.2 63.81,131.11 C61.63,130.22 59.46,129.3 57.29,128.39 C56.15,127.91 54.99,127.47 53.86,126.96 C53.29,126.7 52.75,126.34 52.23,125.98 C51.62,125.55 51.05,125.05 50.44,124.62 C48.74,123.41 47.33,121.89 46,120.3 C45.45,119.65 44.8,119.08 44.26,118.42 C43.03,116.94 42.05,115.32 41.26,113.55 C40.63,112.15 39.75,110.86 39.01,109.51 C38.59,108.74 38.17,107.96 37.82,107.15 C37.32,105.97 36.86,104.76 36.45,103.54 C36.16,102.66 35.97,101.74 35.76,100.83 C35.46,99.59 35.23,98.33 34.88,97.11 C34.67,96.38 35,95.32 35.72,94.94 C35.79,94.9 35.89,94.87 35.92,94.8 C36.34,94.03 36.89,93.85 37.78,94.1 C38.54,94.32 39.03,94.65 39.58,95.23 C40.35,96.03 40.49,96.9 40.7,97.88 C41.17,100.03 41.54,102.25 42.37,104.27 C43.21,106.3 44.6,108.09 45.65,110.03 C46.19,111.03 46.53,112.14 46.96,113.2 C47.01,113.32 47.08,113.45 47.18,113.54 C47.64,114 48.15,114.42 48.58,114.9 C49.74,116.19 50.8,117.59 52.05,118.78 C53.08,119.76 54.29,120.57 55.49,121.34 C56.58,122.04 57.74,122.64 58.91,123.19 C59.8,123.61 60.75,123.89 61.67,124.22 C62.32,124.46 62.99,124.64 63.62,124.92 C64.56,125.35 65.52,125.61 66.55,125.64 C66.69,125.64 66.88,125.61 66.96,125.69 C67.74,126.43 68.69,126.15 69.6,126.17 C70.48,126.19 71.37,126.24 72.25,126.35 C72.74,126.41 73.33,126.9 73.68,126.75 C74.58,126.36 75.49,126.4 76.41,126.36 C76.85,126.34 77.29,126.14 77.72,126.18 C78.49,126.24 79.17,126.23 79.89,125.8 C80.4,125.5 81.11,125.54 81.72,125.4 C82.19,125.29 82.67,125.17 83.12,125.02 C84.09,124.69 85.07,124.37 86.02,123.98 C86.87,123.63 87.68,123.2 88.51,122.82 C88.81,122.68 89.13,122.61 89.43,122.46 C89.72,122.32 90,122.14 90.28,121.96 C90.41,121.87 90.51,121.64 90.63,121.64 C92.13,121.6 93.02,120.39 94.01,119.61 C95.82,118.18 97.39,116.47 98.72,114.51 C99.34,113.6 100.04,112.77 100.52,111.74 C101.37,109.95 102.36,108.22 103.32,106.49 C103.69,105.81 104.22,105.22 104.54,104.52 C104.91,103.72 105.18,102.86 105.4,102.01 C105.72,100.79 105.96,99.55 106.25,98.32 C106.41,97.6 106.5,96.85 106.77,96.18 C107.34,94.79 108.47,94.09 109.95,93.94 C110.06,93.93 110.21,93.93 110.27,93.99 C110.97,94.72 112.03,95.15 112.19,96.32 C112.22,96.51 112.23,96.72 112.19,96.91 C111.88,98.4 111.62,99.91 111.2,101.37 C110.82,102.66 110.24,103.88 109.77,105.14 C109.6,105.6 109.56,106.1 109.36,106.54 C108.7,107.93 107.99,109.29 107.3,110.66 C106.45,112.34 105.61,114.02 104.73,115.69 C104.46,116.2 104.15,116.71 103.78,117.15 C102.22,118.99 100.7,120.86 99.03,122.59 C98.12,123.53 96.97,124.24 95.91,125.04 C95.18,125.59 94.45,126.13 93.68,126.62 C93.27,126.88 92.78,127.01 92.33,127.21 C90.85,127.91 89.39,128.64 87.9,129.3 C87,129.7 86.05,130 85.12,130.35 C84.73,130.5 84.35,130.67 83.95,130.79 C83.39,130.96 82.83,131.07 82.27,131.22 C81.23,131.5 80.05,131.16 79.09,131.92 C78.91,132.07 78.55,131.99 78.27,132.02 C77.69,132.08 77.11,132.14 76.68,132.19 C76.61,132.77 76.52,133.21 76.51,133.65 C76.48,134.37 76.49,135.09 76.5,135.82 C76.5,135.93 76.56,136.04 76.55,136.15 C76.49,137.54 76.35,138.94 76.39,140.33 C76.42,141.51 76.65,142.68 76.79,143.85 C76.8,143.96 76.81,144.07 76.81,144.19 C76.83,145.87 76.84,147.56 76.88,149.24 C76.91,150.75 76.94,152.26 77.05,153.76 C77.07,154.1 77.43,154.41 77.63,154.74 C77.69,154.64 77.75,154.54 77.81,154.44 C78.11,154.54 78.41,154.65 78.7,154.74 C78.81,154.77 78.95,154.83 79.04,154.79 C80.5,154.19 82.02,154.76 83.5,154.59 C84.88,154.43 86.27,154.27 87.66,154.18 C88.83,154.11 90.02,154.08 91.19,154.17 C91.82,154.22 92.53,153.97 93.08,154.8 C93.36,155.23 94.34,155.19 95,155.37 C95.75,155.57 95.84,156.28 96.03,156.84 C96.22,157.4 96.26,157.98 95.74,158.54 C94.96,159.38 93.97,159.83 93.01,160.36 C92.87,160.44 92.68,160.46 92.52,160.45 C91.77,160.4 91.03,160.28 90.28,160.28 C88.52,160.28 86.76,160.33 85,160.36 C84.35,160.37 83.71,160.38 83.06,160.41 C80.52,160.5 77.97,160.46 75.46,160.74 C74.44,160.85 73.42,160.77 72.41,160.93 C71.92,161.01 71.38,160.79 70.86,160.73 C69.59,160.59 68.32,160.43 67.04,160.37 C65.86,160.32 64.68,160.42 63.5,160.39 C61.68,160.35 59.86,160.23 58.04,160.21 C57.07,160.2 56.11,160.36 55.14,160.37 C54.67,160.37 54.19,160.23 53.74,160.09 C52.94,159.85 52.3,159.37 51.66,158.82 C50.67,157.97 50.9,157.36 51.16,156.51 C51.48,155.46 52.35,155.08 53.35,154.96 C53.75,154.91 54.23,155.03 54.31,154.4 C54.32,154.33 54.58,154.25 54.73,154.24 C55.99,154.18 57.26,154.04 58.52,154.12 C60.03,154.21 61.53,154.55 63.04,154.64 C64.29,154.72 65.55,154.58 66.81,154.56 C67.12,154.56 67.42,154.72 67.73,154.74 C67.97,154.75 68.21,154.64 68.45,154.57 C68.52,154.55 68.61,154.42 68.64,154.43 C69.49,154.91 70.52,153.77 71.33,154.74 C71.35,154.77 71.72,154.65 71.97,154.63 Z" id="Capitulo1"></path>
        </g>
    </g>
</svg>