<?xml version="1.0" encoding="UTF-8" standalone="no"?>
<svg width="112px" height="168px" viewBox="0 0 112 168" version="1.1" xmlns="http://www.w3.org/2000/svg" xmlns:xlink="http://www.w3.org/1999/xlink">
    <!-- Generator: Sketch 3.7 (28169) - http://www.bohemiancoding.com/sketch -->
    <title>Capitulo3</title>
    <desc>Created with Sketch.</desc>
    <defs></defs>
    <g id="Page-1" stroke="none" stroke-width="1" fill="none" fill-rule="evenodd">
        <g id="cap1" transform="translate(-17.000000, 0.000000)" fill="#FF2600">
            <path d="M66.78,167.23 C65.2,166.89 64.13,165.83 63.12,164.67 C62.9,164.41 62.46,164.34 62.2,164.11 C61.26,163.29 60.35,162.42 59.41,161.59 C58.47,160.76 57.48,159.96 56.54,159.12 C55.77,158.44 55.06,157.69 54.29,157.01 C53.61,156.42 52.87,155.91 52.17,155.33 C51.22,154.55 50.3,153.74 49.36,152.95 C48.42,152.16 47.46,151.38 46.53,150.57 C45.88,150.01 45.28,149.37 44.61,148.84 C44.23,148.54 43.67,148.47 43.33,148.15 C42.42,147.28 41.58,146.32 40.71,145.4 C39.91,144.55 39.12,143.68 38.3,142.85 C37.8,142.34 37.2,141.91 36.73,141.37 C36.41,141 36.29,140.46 35.98,140.08 C34.98,138.85 33.92,137.66 32.89,136.44 C32.62,136.13 32.4,135.78 32.15,135.44 C31.34,134.35 30.5,133.27 29.71,132.15 C29.23,131.47 28.89,130.7 28.37,130.06 C27.67,129.19 26.84,128.43 26.12,127.58 C25.78,127.19 25.6,126.67 25.27,126.27 C24.38,125.2 23.43,124.18 22.54,123.11 C22.28,122.8 22.16,122.39 21.96,122.03 C21.64,121.46 21.29,120.91 20.97,120.34 C20.33,119.2 19.69,118.06 19.06,116.91 C18.71,116.28 18.97,115.58 19.6,115.1 C19.79,114.95 19.94,114.57 19.9,114.33 C19.77,113.57 19.57,112.81 19.35,112.07 C19.28,111.81 18.99,111.61 18.95,111.35 C18.8,110.24 18.71,109.12 18.58,108 C18.54,107.62 18.42,107.24 18.41,106.85 C18.4,106.48 18.48,106.11 18.54,105.67 C18.49,105.56 18.27,105.3 18.27,105.06 C18.29,103.78 18.38,102.5 18.41,101.23 C18.42,100.66 18.33,100.08 18.31,99.51 C18.28,98.48 18.28,97.45 18.26,96.43 C18.25,96.03 18.38,95.54 18.19,95.25 C17.75,94.59 18.11,94 18.15,93.38 C18.19,92.75 18.06,92.11 18.1,91.48 C18.18,90.26 18.49,89.03 18.37,87.84 C18.3,87.13 18.62,86.45 18.31,85.71 C18.12,85.26 18.35,84.62 18.39,84.07 C18.46,83.16 18.52,82.25 18.61,81.34 C18.69,80.62 18.83,79.91 18.9,79.2 C18.94,78.8 18.88,78.38 18.89,77.97 C18.9,77.76 18.97,77.55 19,77.33 C19.03,77.14 19.06,76.95 19.11,76.62 C19.46,76.49 19.83,76.24 19.28,75.65 C19.12,75.48 19.12,75.08 19.15,74.8 C19.28,73.79 19.48,72.8 19.62,71.79 C19.76,70.78 19.84,69.77 19.96,68.75 C20.02,68.26 20.3,67.72 20.16,67.31 C19.83,66.35 20.46,65.58 20.45,64.69 C20.44,63.33 20.61,61.97 20.6,60.6 C20.6,58.15 20.5,55.69 20.49,53.23 C20.48,51.83 20.59,50.46 21.28,49.16 C21.59,48.58 21.64,47.87 21.77,47.21 C21.89,46.62 21.94,46.02 22.05,45.42 C22.26,44.32 22.69,43.29 22.72,42.11 C22.75,40.97 23.26,39.84 23.55,38.7 C23.66,38.28 23.73,37.86 23.82,37.38 C23.93,37.44 24.08,37.52 24.24,37.61 C23.83,35.61 24.79,33.92 25.35,32.15 C25.6,31.36 25.76,30.54 26.01,29.76 C26.23,29.08 26.48,28.41 26.81,27.78 C27.39,26.68 28.23,25.69 28.6,24.54 C28.9,23.61 29.35,23.03 30.07,22.45 C30.45,22.14 30.57,21.49 30.77,20.98 C31.34,19.54 32.43,18.5 33.48,17.44 C34.08,16.84 34.59,16.1 35.29,15.66 C36.43,14.94 36.58,13.36 37.88,12.83 C37.98,11.98 38.82,12.02 39.31,11.66 C39.83,11.27 40.46,11.02 40.85,10.81 C40.9,10.46 40.85,10.08 40.99,9.99 C41.87,9.42 42.79,8.91 43.7,8.38 C44.16,8.11 44.61,7.8 45.09,7.57 C45.43,7.41 45.83,7.39 46.18,7.27 C46.37,7.21 46.61,7.11 46.68,6.96 C47.03,6.2 47.46,6.04 48.07,6.32 C48.49,6.01 48.83,5.78 49.16,5.54 C49.81,5.07 50.63,5 51.29,4.52 C51.92,4.07 52.69,3.82 53.39,3.47 C53.71,3.31 53.99,3.03 54.32,2.97 C54.76,2.88 55.24,2.95 55.75,2.95 C56,2.3 56.41,2.12 57.2,2.5 C57.15,2.28 57.11,2.13 57.09,2.06 C62.17,0.45 67.38,-0.12 72.6,1.05 C72.81,1.16 73.01,1.36 73.22,1.36 C74.35,1.38 74.35,1.36 74.37,0.68 C77.07,0.61 79.79,0.36 82.49,0.51 C84.33,0.62 86.22,0.79 87.98,1.56 C88.59,1.83 89.32,1.81 90.04,1.93 C89.98,2.07 89.92,2.22 89.78,2.56 C90.67,2.03 91.13,2.31 91.38,3.08 C91.95,2.71 92.44,2.64 93.01,3.18 C93.35,3.5 93.87,3.75 94.33,3.8 C95.1,3.88 95.5,4.39 96.05,4.79 C96.58,5.17 97.3,5.27 97.91,5.55 C98.26,5.7 98.56,5.95 99.03,6.26 C99.52,6.05 100.11,6.14 100.41,7.05 C100.45,7.17 100.75,7.3 100.89,7.27 C101.64,7.09 102.05,7.62 102.59,7.96 C103.23,8.36 103.99,8.57 104.66,8.95 C105.22,9.27 105.73,9.68 106.21,10.1 C106.3,10.18 106.19,10.5 106.16,10.8 C106.54,10.99 107.1,11.25 107.64,11.54 C108.73,12.11 109.54,13 110.33,13.91 C110.42,14.01 110.55,14.1 110.6,14.22 C111,15.23 111.91,15.8 112.63,16.52 C114.3,18.18 116.07,19.76 116.81,22.12 C116.88,22.33 117.08,22.53 117.26,22.67 C117.8,23.11 118.34,23.51 118.37,24.33 C118.39,24.69 118.7,25.04 118.89,25.39 C119.34,26.2 119.87,26.97 120.24,27.8 C120.59,28.59 120.79,29.45 121.06,30.29 C121.25,30.87 121.44,31.45 121.63,32.03 C122.1,33.42 122.62,34.79 123.02,36.2 C123.14,36.62 122.88,37.14 122.79,37.69 C122.98,37.57 123.12,37.48 123.21,37.42 C123.56,38.81 123.92,40.19 124.25,41.58 C124.33,41.92 124.26,42.29 124.33,42.63 C124.51,43.53 124.73,44.43 124.93,45.33 C125.19,46.52 125.43,47.72 125.72,48.91 C125.84,49.38 126.12,49.8 126.25,50.26 C126.55,51.35 126.65,52.44 126.51,53.59 C126.39,54.61 126.47,55.65 126.47,56.69 C126.47,58.04 126.48,59.38 126.47,60.73 C126.47,61.59 126.36,62.46 126.45,63.31 C126.56,64.32 126.87,65.32 127.03,66.33 C127.13,66.98 127.15,67.64 127.16,68.29 C127.17,68.9 127.07,69.51 127.13,70.12 C127.19,70.72 127.34,71.33 127.51,71.91 C127.91,73.28 128.2,74.64 127.6,76.04 C127.53,76.2 127.85,76.52 128.03,76.83 C128.25,79.12 128.59,81.53 128.68,83.95 C128.77,86.39 128.97,88.84 129,91.28 C129.03,93.74 128.98,96.2 128.73,98.67 C128.49,101.04 129.12,103.46 128.58,106.04 C128.6,106.13 128.74,106.45 128.71,106.75 C128.6,107.78 128.42,108.8 128.29,109.82 C128.22,110.38 128.3,110.97 128.15,111.5 C127.86,112.53 127.44,113.53 127.14,114.55 C127.09,114.71 127.32,115.04 127.5,115.17 C128.23,115.68 128.36,116.34 127.95,117.11 C127.52,117.9 127.2,118.74 126.8,119.55 C126.57,120.01 126.3,120.46 126.01,120.89 C124.97,122.45 123.99,124.06 122.56,125.34 C122.04,125.8 121.75,126.51 121.36,127.11 C121.24,127.29 121.15,127.52 120.99,127.66 C119.75,128.76 118.7,130 117.86,131.44 C117.32,132.37 116.49,133.14 115.84,134.01 C115.36,134.65 115,135.37 114.51,136 C113.61,137.14 112.63,138.21 111.73,139.35 C111.27,139.94 110.97,140.66 110.52,141.25 C110.12,141.77 109.6,142.19 109.14,142.65 C107.87,143.91 106.6,145.15 105.35,146.42 C104.76,147.03 104.29,147.77 103.65,148.32 C102.96,148.91 102.11,149.3 101.39,149.87 C100.2,150.82 99.06,151.85 97.89,152.82 C96.78,153.74 95.63,154.61 94.54,155.56 C93.46,156.5 92.45,157.53 91.37,158.48 C90.69,159.09 89.94,159.62 89.25,160.21 C88.69,160.69 88.17,161.23 87.62,161.72 C86.65,162.59 85.67,163.47 84.68,164.32 C83.83,165.04 82.78,165.61 82.12,166.47 C81.58,167.16 80.86,166.94 80.31,167.31 L78.96,167.31 C78.4,167.05 78.58,166.42 78.34,166.06 C77.88,165.4 77.57,164.78 77.75,163.96 C77.77,163.86 77.73,163.73 77.67,163.64 C76.98,162.45 76.67,161.16 76.76,159.79 C76.78,159.45 77.04,159.13 77.07,158.78 C77.21,157.2 77.36,155.63 77.4,154.05 C77.47,151.56 77.46,149.07 77.46,146.58 C77.46,145.29 77.41,144 77.4,142.7 C77.4,142.24 77.45,141.77 77.48,141.31 C77.53,140.06 77.48,138.81 77.56,137.56 C77.59,137.02 77.93,136.5 78.01,135.96 C78.07,135.53 77.91,135.07 77.93,134.63 C77.98,133.41 78.16,132.19 78.14,130.97 C78.12,129.72 77.82,128.48 77.81,127.24 C77.8,126.17 78.05,125.1 78.13,124.03 C78.25,122.4 78.36,120.76 78.42,119.12 C78.52,116.28 78.55,113.43 78.64,110.59 C78.68,109.5 78.64,108.36 78.93,107.33 C79.6,104.92 79.37,102.47 79.4,100.04 C79.41,99.43 79.45,99.05 79.72,98.87 C79.68,98.44 79.65,98.15 79.64,97.87 C79.63,97.72 79.68,97.55 79.64,97.41 C79.31,96.29 79.71,95.58 80.88,95.2 C81.03,95.15 81.13,94.99 81.28,94.92 C81.56,94.78 81.88,94.54 82.13,94.59 C82.5,94.65 82.88,95.14 83.16,95.07 C83.56,94.97 83.84,94.44 84.25,94.26 C85.35,93.77 86.49,93.35 87.62,92.92 C88.25,92.68 88.92,92.21 89.46,93.18 C89.58,92.97 89.71,92.84 89.7,92.74 C89.59,91.83 90.16,91.85 90.8,91.86 C91.11,91.87 91.43,91.73 91.74,91.64 C92.46,91.42 93.23,90.9 93.89,91 C95.05,91.19 96.04,90.7 96.91,90.3 C97.82,89.88 98.68,89.6 99.6,89.39 C99.96,89.07 100.34,88.65 100.75,88.61 C101.19,88.56 101.66,88.87 101.99,88.99 C102.04,88.78 102.04,88.46 102.18,88.23 C102.71,87.39 103.51,87.15 104.52,87.42 C104.72,87.48 104.96,87.4 104.97,87.4 C104.93,86.99 104.79,86.63 104.91,86.45 C105.25,85.94 105.96,85.97 106.46,86.43 C106.6,86.03 106.69,85.32 106.88,85.29 C107.86,85.15 108.65,84.8 109.38,84.1 C109.71,83.79 110.36,83.82 110.88,83.69 C111.56,81.06 111.89,80.52 112.46,80.21 C112.39,79.95 112.3,79.72 112.27,79.48 C112.21,78.94 112.17,78.39 112.12,77.85 C111.97,76.21 111.82,74.56 111.68,72.92 C111.62,72.21 111.59,71.49 111.54,70.62 C110.86,71 110.06,71.18 109.87,71.62 C109.6,72.23 109.24,72.26 108.78,72.27 C107.89,72.27 107.12,72.54 106.37,73.06 C105.67,73.56 104.85,73.9 104.09,74.31 C103.29,74.74 102.35,74.79 101.56,75.33 C101.03,75.7 100.24,75.68 99.59,75.89 C98.13,76.36 96.69,76.89 95.22,77.34 C94.05,77.7 92.85,77.96 91.67,78.29 C90.85,78.52 90.05,78.83 89.21,79.01 C87.76,79.33 86.28,79.57 84.83,79.86 C84.15,80 83.48,80.3 82.8,80.36 C81.96,80.43 81.11,80.3 80.44,80.99 C80.35,81.08 80.12,81.04 79.96,81.04 C79.43,81.03 78.91,81.03 78.38,81 C77.69,80.96 76.99,80.89 76.3,80.85 C75.19,80.78 74.08,80.64 72.98,80.68 C71,80.75 69.04,80.94 67.06,81.07 C66.92,81.08 66.78,80.94 66.63,80.9 C66.05,80.72 65.48,80.52 64.89,80.39 C64.49,80.3 64.05,80.37 63.64,80.28 C62.32,79.98 61.02,79.63 59.71,79.31 C58.34,78.98 56.97,78.67 55.6,78.35 C54.99,78.21 54.38,78.06 53.77,77.89 C52.86,77.62 51.95,77.33 51.04,77.05 C49.94,76.7 48.84,76.36 47.75,76 C47.51,75.92 47.3,75.78 47.06,75.7 C45.83,75.3 44.58,74.97 43.37,74.51 C42.57,74.2 41.78,73.79 41.09,73.28 C40.17,72.6 39.2,72.25 38.06,72.27 C37.85,72.27 37.5,72.11 37.45,71.95 C37.17,71.03 36.31,71.18 35.65,70.69 C35.37,73.99 35.21,77.11 34.81,80.32 C35.9,81.05 35.96,82.52 36.29,83.81 C37.2,83.88 38.06,83.87 38.51,84.81 C38.59,84.97 38.88,85.12 39.06,85.11 C40.04,85.02 40.68,85.29 40.65,86.41 C40.65,86.43 40.74,86.46 40.81,86.49 C41.18,85.73 41.69,86.1 42.13,86.37 C42.75,86.75 42.33,87.07 41.87,87.35 C42.71,87.42 43.42,87.42 44.12,87.54 C44.8,87.66 45.21,88.41 45.12,89.18 C46.08,88.34 47.1,88.48 47.47,89.42 C48,89.57 48.47,89.69 48.93,89.84 C49.58,90.06 50.21,90.36 50.87,90.55 C51.7,90.8 52.49,91.07 53.41,91.1 C54.09,91.13 55.08,91 55.62,91.84 C55.68,91.93 55.94,91.94 56.1,91.92 C56.88,91.84 57.56,91.87 57.51,92.94 C57.51,93 57.61,93.06 57.66,93.12 C57.67,93.04 57.67,92.95 57.68,92.87 C58.16,92.85 58.68,92.73 59.13,92.85 C59.98,93.08 60.81,93.41 61.6,93.79 C62.35,94.15 63.03,94.65 63.77,95.04 C63.93,95.13 64.36,95.08 64.38,95.01 C64.57,94.37 65.11,94.58 65.43,94.67 C65.98,94.83 66.51,95.12 66.99,95.44 C67.5,95.78 67.88,98.02 67.57,98.55 C67.51,98.66 67.35,98.71 67.29,98.75 C67.47,99.02 67.77,99.27 67.79,99.55 C67.85,100.33 67.8,101.12 67.8,101.91 C67.8,102.91 67.76,103.92 67.84,104.91 C67.92,105.86 68.22,106.79 68.29,107.73 C68.47,110.03 68.6,112.33 68.7,114.63 C68.82,117.26 68.61,119.89 69.04,122.52 C69.27,123.93 69.17,125.4 69.23,126.84 C69.24,127.09 69.34,127.33 69.33,127.57 C69.25,129.16 69.13,130.76 69.06,132.35 C69.01,133.37 69.21,134.38 69.28,135.38 C69.34,136.18 69.61,136.93 69.63,137.71 C69.66,138.94 69.64,140.17 69.64,141.4 C69.61,141.68 69.87,141.99 69.86,142.3 C69.79,144.72 69.57,147.14 69.58,149.55 C69.6,151.51 69.88,153.46 70.05,155.42 C70.18,156.88 69.78,158.37 70.39,159.8 C70.71,160.57 70.26,161.24 70.07,161.96 C69.79,163.04 69.62,164.14 69.37,165.22 C69.32,165.42 69.13,165.59 69.03,165.79 C68.92,166.01 68.83,166.24 68.72,166.46 C68.55,166.78 68.36,167.09 68.19,167.4 C67.69,167.23 67.24,167.23 66.78,167.23 L66.78,167.23 Z M96.53,71.2 C96.81,71.4 96.97,71.67 97.47,71.24 C98.11,70.69 99.08,70.53 99.85,70.11 C100.7,69.65 101.78,69.9 102.52,69.14 C102.71,68.94 103.04,68.87 103.32,68.77 C103.88,68.57 104.46,68.39 105.02,68.18 C105.19,68.12 105.32,67.96 105.47,67.86 C105.99,68.46 106.82,68.61 107.04,68.14 C106.94,67.96 106.83,67.76 106.62,67.36 L107.61,67.36 C108.43,66.69 109.12,66.05 109.89,65.54 C110.42,65.18 110.96,64.93 110.58,64.16 C111.67,63.93 112.69,63.7 113.55,64.1 C113.88,64.82 114.18,65.41 114.41,66.02 C114.63,66.59 114.83,67.18 114.94,67.78 C115.11,68.7 115.19,69.65 115.33,70.58 C115.54,71.95 115.79,73.3 115.99,74.67 C116.12,75.57 115.99,76.55 116.32,77.37 C116.81,78.59 116.38,79.79 116.52,80.99 C116.65,82.09 116.45,83.22 116.45,84.34 C116.45,84.78 115.81,86.21 115.44,86.41 C114.69,86.82 113.96,87.25 113.22,87.68 C112.22,88.26 111.28,88.96 110.22,89.39 C108.87,89.95 107.66,90.73 106.41,91.45 C105.76,91.82 105.15,92.26 104.48,92.6 C102.83,93.44 101.19,94.33 99.48,95.03 C98.59,95.39 97.58,95.47 96.83,96.17 C96.75,96.25 96.56,96.19 96.42,96.21 C94.97,96.43 93.42,96.41 92.08,96.93 C90.06,97.7 88.15,98.76 86.03,99.31 C85.8,99.37 85.62,99.64 85.4,99.67 C84.43,99.82 84.12,100.26 84.24,101.21 C84.34,101.94 84.39,102.68 84.37,103.41 C84.35,104.07 84.1,104.73 84.14,105.38 C84.2,106.46 84.41,107.53 83.86,108.55 C83.78,108.69 83.74,108.87 83.74,109.03 C83.76,109.85 83.9,110.68 83.82,111.49 C83.71,112.54 83.35,113.56 83.25,114.61 C83.06,116.5 82.96,118.39 82.88,120.29 C82.85,121.08 82.96,121.89 83.01,122.68 C83.11,124.19 82.5,125.64 82.74,127.19 C82.92,128.31 82.41,129.55 82.64,130.64 C82.92,131.91 82.44,133.04 82.49,134.25 C82.55,135.83 82.41,137.41 82.39,138.99 C82.38,139.79 82.52,140.59 82.48,141.39 C82.42,142.61 82.26,143.83 82.14,145.04 C82.1,145.42 82.07,145.8 82.02,146.23 C83.08,147.44 81.71,148.92 82.3,150.38 C82.81,151.65 82.39,153.3 82.33,154.78 C82.27,156.22 82.14,157.66 82.04,159.1 C83.3,158.25 84.33,157.37 85.33,156.48 C85.69,156.16 85.97,155.76 86.33,155.45 C87.13,154.74 87.96,154.08 88.75,153.37 C89.28,152.9 89.79,152.41 90.25,151.88 C90.89,151.15 91.8,150.78 92.48,150.07 C93.39,149.11 94.46,148.31 95.45,147.43 C95.82,147.1 96.09,146.58 96.51,146.41 C98.04,145.8 98.93,144.2 100.58,143.8 C100.68,143.78 100.73,143.59 100.82,143.49 C101.48,142.75 102.15,142.01 102.81,141.27 C103.34,140.65 103.82,139.98 104.37,139.37 C104.92,138.75 105.58,138.23 106.11,137.59 C107.51,135.93 108.88,134.24 110.23,132.54 C110.56,132.12 110.74,131.57 111.07,131.15 C111.71,130.32 112.4,129.52 113.1,128.73 C113.53,128.25 114.07,127.87 114.46,127.37 C115.27,126.36 116,125.29 116.8,124.28 C116.99,124.04 117.33,123.93 117.63,123.74 C117.6,123.68 117.41,123.47 117.46,123.38 C117.68,122.92 117.88,122.41 118.23,122.06 C118.9,121.39 119.58,120.77 120.1,119.96 C120.76,118.94 121.62,118.05 122.32,117.05 C122.56,116.71 122.66,116.23 122.7,115.8 C122.73,115.47 122.46,115.11 122.5,114.78 C122.6,113.96 122.86,113.15 122.97,112.33 C123.18,110.77 123.48,109.21 123.45,107.65 C123.41,105.93 123.92,104.22 123.54,102.5 C123.52,102.42 123.56,102.33 123.57,102.25 C123.66,101.65 123.76,101.06 123.83,100.46 C123.85,100.31 123.75,100.15 123.72,99.99 C123.66,99.68 123.53,99.36 123.55,99.05 C123.62,97.87 123.78,96.69 123.82,95.51 C123.86,93.95 123.85,92.38 123.8,90.82 C123.77,89.88 123.59,88.94 123.57,88 C123.56,87.25 123.18,86.4 123.83,85.89 C123.7,85.49 123.5,85.16 123.51,84.83 C123.55,83.84 123.68,82.86 123.77,81.87 C123.78,81.74 123.72,81.6 123.71,81.47 C123.66,80.98 123.61,80.49 123.57,80 C123.55,79.75 123.59,79.5 123.53,79.26 C123.31,78.35 122.98,77.45 122.85,76.52 C122.66,75.1 122.58,73.66 122.49,72.23 C122.45,71.59 122.55,70.93 122.45,70.31 C122.27,69.27 121.92,68.25 121.76,67.21 C121.63,66.4 121.61,65.56 121.64,64.73 C121.66,64.15 121.73,63.52 121.98,63.01 C122.29,62.37 122.26,62.04 121.42,61.92 C121.42,60.29 121.44,58.66 121.41,57.04 C121.39,55.95 121.3,54.87 121.24,53.79 C121.2,52.93 121.26,52.04 121.09,51.2 C120.78,49.67 120.09,48.25 120.03,46.61 C119.99,45.41 119.51,44.21 119.1,43.04 C118.6,41.62 119.28,39.95 118.11,38.69 C118.08,38.66 118.11,38.58 118.1,38.52 C117.94,37.71 118.03,36.89 117.47,36.1 C116.92,35.32 116.64,34.29 116.49,33.33 C116.07,30.7 114.43,28.66 113.31,26.37 C113.06,25.86 112.78,25.36 112.47,24.88 C112.04,24.21 111.61,23.55 111.13,22.92 C110.71,22.36 110.25,21.81 109.76,21.31 C109.05,20.6 108.27,19.95 107.55,19.24 C107.1,18.8 106.74,18.26 106.26,17.84 C105.6,17.26 104.86,16.76 104.18,16.2 C103.9,15.97 103.71,15.63 103.41,15.44 C102.39,14.78 101.33,14.19 100.31,13.53 C99.11,12.76 97.96,11.93 96.75,11.18 C96.41,10.97 95.92,11.04 95.56,10.86 C94.28,10.24 93.04,9.56 91.77,8.93 C91.48,8.79 91.15,8.74 90.84,8.64 C90.24,8.44 89.64,8.23 89.04,8.03 C88.58,7.97 88.11,7.86 87.64,7.76 C87.48,7.72 87.32,7.66 87.16,7.64 C86.08,7.51 85,7.37 83.92,7.27 C83.26,7.21 82.59,7.3 81.94,7.2 C79.8,6.89 77.69,7.16 75.57,7.34 C74.57,7.42 73.56,7.62 72.57,7.57 C70.79,7.48 69.02,7.16 67.24,7.11 C65.52,7.06 63.78,7.2 62.06,7.32 C61.26,7.38 60.47,7.57 59.68,7.73 C59.19,7.83 58.7,7.97 58.21,8.09 C57.69,8.22 57.18,8.44 56.65,8.62 C56.11,8.81 55.54,8.92 55.03,9.16 C54.58,9.36 54.22,9.76 53.76,9.94 C52.73,10.37 51.62,10.63 50.64,11.13 C49.63,11.65 48.69,12.33 47.78,13.02 C46.11,14.29 44.07,15.03 42.66,16.65 C42.62,16.69 42.57,16.71 42.52,16.74 C41.94,17.2 41.31,17.62 40.78,18.14 C39.8,19.1 38.88,20.12 37.93,21.11 C37.35,21.71 36.75,22.29 36.17,22.89 C35.86,23.22 35.55,23.55 35.32,23.94 C34.85,24.72 34.46,25.55 34,26.34 C33.56,27.09 33.01,27.78 32.63,28.57 C31.51,30.88 30.65,33.3 29.93,35.76 C29.83,36.11 29.51,36.39 29.41,36.74 C29.16,37.65 29.39,38.68 28.65,39.45 C28.55,39.56 28.52,39.76 28.5,39.92 C28.38,40.89 28.32,41.86 28.16,42.82 C27.97,43.97 27.71,45.1 27.46,46.24 C27.42,46.44 27.23,46.61 27.2,46.81 C27.1,47.48 27.2,48.23 26.93,48.82 C26.09,50.66 26.14,52.64 25.88,54.56 C25.74,55.58 26.07,56.66 26.04,57.71 C26,59.13 25.82,60.54 25.7,61.97 C24.99,62.03 25,62.43 25.3,62.98 C25.43,63.22 25.63,63.49 25.62,63.74 C25.56,65.4 25.58,67.08 25.32,68.71 C25.13,69.88 24.85,71.01 24.77,72.21 C24.67,73.95 24.34,75.68 24.13,77.42 C23.99,78.55 23.9,79.69 23.79,80.82 C23.78,80.93 23.78,81.05 23.74,81.15 C23.39,81.98 23.8,82.81 23.74,83.63 C23.68,84.38 24.19,85.25 23.32,85.82 C23.48,85.99 23.75,86.15 23.77,86.32 C23.82,86.84 23.77,87.37 23.75,87.9 C23.66,89.81 23.59,91.73 23.46,93.64 C23.3,95.92 23.92,98.19 23.45,100.46 C23.43,100.57 23.46,100.68 23.47,100.79 C23.56,101.42 23.69,102.04 23.72,102.67 C23.73,102.95 23.36,103.33 23.46,103.51 C23.92,104.39 23.7,105.32 23.78,106.22 C23.92,107.76 23.93,109.31 24.1,110.85 C24.21,111.81 24.6,112.74 24.7,113.7 C24.78,114.42 24.41,115.21 24.58,115.88 C24.8,116.79 25.23,117.69 25.78,118.45 C26.58,119.55 27.57,120.51 28.45,121.55 C28.85,122.03 29.19,122.57 29.52,123.1 C29.66,123.32 29.7,123.6 29.83,123.97 C29.83,123.97 30.14,123.92 30.26,124.04 C30.85,124.68 31.41,125.34 31.95,126.02 C32.36,126.54 32.69,127.11 33.09,127.62 C33.34,127.94 33.69,128.18 33.94,128.5 C35.01,129.89 36.06,131.3 37.13,132.7 C37.56,133.27 37.99,133.84 38.44,134.4 C38.97,135.06 39.52,135.71 40.07,136.36 C40.8,137.22 41.54,138.08 42.28,138.94 C42.66,139.38 42.97,139.97 43.45,140.23 C44.31,140.69 44.38,141.88 45.37,142.17 C45.4,142.18 45.39,142.28 45.43,142.32 C45.84,142.83 46.15,143.6 46.68,143.8 C47.57,144.14 48.16,144.82 48.92,145.26 C50.73,146.32 52.11,147.87 53.64,149.25 C54.19,149.75 54.66,150.52 55.3,150.7 C56.29,150.97 56.66,151.85 57.39,152.34 C58.07,152.79 58.51,153.59 59.14,154.13 C59.91,154.8 61.06,155.19 61.53,156 C62.39,157.49 64.1,157.88 65.07,159.23 C65.19,158.79 65.21,158.39 65.19,157.99 C65.17,157.6 65.13,157.21 65.09,156.82 C64.99,155.69 64.86,154.56 64.81,153.43 C64.77,152.41 64.66,151.34 64.91,150.39 C65.14,149.53 65.18,148.8 64.97,147.94 C64.84,147.41 64.59,146.63 65.39,146.26 C65.27,146.04 65.09,145.86 65.08,145.67 C65,144.82 64.95,143.97 64.93,143.11 C64.9,141.81 64.9,140.5 64.89,139.2 C64.88,138.15 64.9,137.1 64.88,136.05 C64.86,135 64.82,133.94 64.74,132.89 C64.66,131.85 64.46,130.81 64.43,129.77 C64.39,128.11 64.72,126.46 64.46,124.78 C64.29,123.63 64.44,122.44 64.41,121.27 C64.37,119.84 64.31,118.42 64.24,117 C64.21,116.36 64.16,115.72 64.06,115.09 C63.88,113.97 63.53,112.85 63.46,111.72 C63.38,110.39 63.67,109.03 63.05,107.75 C63.02,107.68 63.04,107.58 63.04,107.5 C62.99,106.3 62.92,105.09 62.91,103.89 C62.91,102.99 62.98,102.09 63.05,101.19 C63.1,100.55 62.96,99.96 62.33,99.74 C61.31,99.39 60.22,99.23 59.21,98.86 C58.1,98.45 57.05,97.87 55.96,97.42 C55.21,97.11 54.42,96.66 53.66,96.68 C51.55,96.74 49.73,95.8 47.84,95.16 C46.2,94.61 44.68,93.7 43.14,92.89 C42.21,92.4 41.34,91.79 40.43,91.24 C39.87,90.9 39.28,90.6 38.71,90.28 C38.48,90.15 38.26,90.02 38.03,89.9 C36.76,89.24 35.48,88.61 34.23,87.93 C33.43,87.5 32.59,87.09 31.92,86.5 C31.4,86.05 30.71,85.26 30.8,84.74 C31.1,83.06 30.76,81.43 30.71,79.79 C30.69,79.22 30.65,78.64 30.73,78.08 C30.89,76.86 31.12,75.64 31.3,74.42 C31.54,72.78 31.75,71.13 32,69.49 C32.1,68.81 32.19,68.11 32.41,67.47 C32.77,66.4 33.24,65.36 33.68,64.25 C34.62,63.93 35.63,64.02 36.65,64.32 C36.58,65.1 36.6,65.07 37.29,65.58 C38.1,66.18 38.85,66.85 39.58,67.45 C39.88,67.47 40.21,67.49 40.63,67.51 C40.43,67.91 40.33,68.13 40.22,68.34 C40.25,68.43 40.29,68.51 40.32,68.6 C40.83,68.47 41.34,68.35 41.84,68.23 C42.41,68.4 43.04,68.63 43.69,68.78 C44.81,69.04 45.61,69.91 46.85,70.08 C47.96,70.23 48.98,71.11 50.05,71.66 C50.15,71.71 50.35,71.69 50.41,71.62 C50.67,71.36 50.83,71.5 51.14,71.57 C51.68,71.7 52.16,71.79 52.58,72.2 C52.81,72.43 53.16,72.54 53.37,72.65 C53.7,72.58 54.07,72.43 54.45,72.42 C54.75,72.41 55.05,72.57 55.35,72.66 C55.53,72.71 55.72,72.75 55.89,72.83 C56.15,72.95 56.37,73.17 56.64,73.24 C57.5,73.44 58.37,73.57 59.23,73.76 C60.53,74.05 61.83,74.37 63.12,74.69 C63.51,74.79 63.89,74.91 64.27,75.02 C65.04,75.24 65.82,75.67 66.58,75.64 C68.04,75.57 69.45,76.21 70.93,75.75 C71.48,75.58 72.15,75.85 72.76,75.84 C74.03,75.83 75.31,75.73 76.58,75.73 C77.07,75.73 77.56,76 78.04,75.98 C78.86,75.95 79.68,75.79 80.5,75.67 C80.85,75.62 81.2,75.54 81.54,75.45 C82.46,75.2 83.38,74.92 84.31,74.7 C85.19,74.49 86.09,74.36 86.97,74.16 C87.52,74.03 88.06,73.81 88.61,73.7 C89.47,73.52 90.35,73.4 91.21,73.24 C91.33,73.22 91.44,73.13 91.55,73.06 C91.78,72.94 92,72.78 92.25,72.69 C92.43,72.63 92.71,72.73 92.81,72.63 C93.42,72.04 93.8,72.31 94.16,73.11 C94.22,72.7 94.26,72.48 94.28,72.35 C94.95,71.82 95.73,71.52 96.53,71.2 L96.53,71.2 Z" id="Capitulo3"></path>
        </g>
    </g>
</svg>