<?xml version="1.0" encoding="UTF-8" standalone="no"?>
<svg width="146px" height="154px" viewBox="0 0 146 154" version="1.1" xmlns="http://www.w3.org/2000/svg" xmlns:xlink="http://www.w3.org/1999/xlink">
    <!-- Generator: Sketch 3.7 (28169) - http://www.bohemiancoding.com/sketch -->
    <title>Capitulo2</title>
    <desc>Created with Sketch.</desc>
    <defs></defs>
    <g id="Page-1" stroke="none" stroke-width="1" fill="none" fill-rule="evenodd">
        <g id="cap1" transform="translate(-1.000000, -7.000000)" fill="#FF2600">
            <path d="M145.98,117 C145.85,117.84 145.52,118.6 145.69,119.54 C145.87,120.54 145.6,121.61 145.52,122.65 C145.51,122.82 145.48,122.99 145.48,123.15 C145.48,124.65 145.48,126.16 145.49,127.66 C145.5,128.73 144.9,129.33 143.81,129.4 C143.49,129.42 143.17,129.57 142.85,129.65 C142.64,129.71 142.4,129.86 142.23,129.8 C140.47,129.15 139.03,130.2 137.6,130.81 C136.36,131.34 135.25,132.2 133.99,132.8 C132.39,133.56 130.83,134.43 129.19,135.14 C128,135.66 126.88,136.36 125.72,136.97 C124.79,137.46 123.85,137.96 122.91,138.44 C121.85,138.98 120.77,139.46 119.73,140.03 C118.26,140.84 116.82,141.72 115.34,142.52 C114.77,142.83 114.09,142.95 113.49,143.22 C112.33,143.73 111.2,144.31 110.04,144.82 C108.39,145.55 106.72,146.23 105.07,146.97 C104.15,147.39 103.33,147.95 102.24,148.04 C101.5,148.1 100.68,148.52 100.12,149.02 C98.54,150.42 96.56,151.03 94.67,151.55 C93.01,152.01 91.65,153 90.03,153.48 C89.09,153.76 88.31,154.55 87.45,155.12 C87.36,155.18 87.27,155.26 87.17,155.3 C86.26,155.72 85.39,156.35 84.44,156.5 C83.12,156.7 82.24,157.84 80.82,157.84 C80.05,157.84 79.29,158.56 78.5,158.87 C77.84,159.13 77.13,159.28 76.43,159.47 C76.22,159.53 75.91,159.48 75.79,159.61 C74.84,160.58 73.65,160.05 72.59,160.07 C72.08,160.08 71.57,159.56 71.03,159.36 C70.62,159.21 70.14,159.23 69.74,159.07 C69.01,158.76 68.32,158.35 67.59,158.03 C67.24,157.88 66.85,157.83 66.48,157.74 C66.32,157.7 66.1,157.75 66,157.65 C65.23,156.97 64.1,156.93 63.35,156.42 C61.8,155.36 59.91,155.05 58.41,153.82 C57.3,152.91 55.69,152.62 54.32,152.03 C52.99,151.46 51.67,150.86 50.37,150.25 C49.29,149.74 48.25,149.15 47.16,148.65 C45.23,147.76 43.21,147.09 41.28,146.2 C41,146.07 40.75,145.89 40.5,145.72 C39.86,145.28 39.23,144.9 38.38,144.87 C37.9,144.85 37.44,144.43 36.95,144.27 C35.88,143.91 34.81,143.48 33.7,143.29 C31.96,142.99 30.36,142.28 28.67,141.84 C27.79,141.61 27.01,141.05 26.15,140.75 C25.4,140.48 24.81,140.11 24.18,139.57 C23.42,138.91 22.26,138.71 21.29,138.28 C20.28,137.83 19.3,137.33 18.3,136.87 C17.36,136.44 16.37,136.12 15.48,135.62 C14.61,135.13 13.87,134.41 13.02,133.88 C12.14,133.33 11.21,132.88 10.28,132.42 C9.31,131.94 8.21,131.65 7.37,131.01 C6.7,130.5 6.05,129.65 5.89,128.85 C5.56,127.16 5.58,125.4 5.42,123.66 C5.39,123.34 5.2,123.03 5.16,122.71 C4.95,121.05 4.76,119.4 4.33,117.77 C4.16,117.13 4.5,116.38 4.45,115.68 C4.38,114.48 4.18,113.28 4.06,112.08 C4.03,111.74 4.09,111.38 4.09,111.03 C4.09,110.24 4.08,109.44 4.05,108.65 C4.03,107.91 3.82,107.13 3.99,106.45 C4.49,104.51 4.32,102.54 4.43,100.58 C4.48,99.7 4.74,98.83 4.74,97.96 C4.74,96.62 4.58,95.28 4.5,93.95 C4.49,93.82 4.58,93.69 4.59,93.55 C4.63,92.98 4.71,92.42 4.69,91.85 C4.66,91.02 4.37,90.16 4.51,89.37 C4.72,88.24 4.73,87.2 4.54,86.04 C4.28,84.52 4.44,82.93 4.43,81.38 C4.42,79.82 4.49,78.25 4.41,76.68 C4.34,75.42 4.05,74.16 3.94,72.9 C3.78,70.99 3.65,69.07 3.57,67.15 C3.49,65.18 3.53,63.21 3.43,61.25 C3.39,60.48 3.1,59.72 2.97,58.95 C2.56,56.58 1.94,54.23 2.08,51.8 C2.19,49.97 2.04,48.16 1.74,46.34 C1.57,45.29 1.74,44.18 1.74,43.09 C1.74,42.73 1.72,42.35 1.64,42 C1.12,39.97 1.38,37.94 1.36,35.92 C1.35,35.28 1.22,34.65 1.18,34.01 C1.1,32.65 1.03,31.29 1,29.93 C0.99,29.47 1.1,29 1.16,28.53 C1.35,26.93 1.47,25.31 1.73,23.72 C1.91,22.65 2.9,22.27 3.72,21.75 C4.59,21.19 5.22,21.73 5.96,22.08 C7.34,22.72 8.8,23.19 10.2,23.78 C10.7,23.99 11.1,24.43 11.6,24.62 C11.91,24.74 12.35,24.68 12.67,24.55 C12.78,24.5 12.7,23.98 12.69,23.68 C12.67,22.57 12.5,21.44 12.64,20.35 C12.9,18.43 13.33,16.55 13.12,14.59 C12.99,13.39 13.03,12.17 12.99,10.96 C12.98,10.61 12.87,10.24 12.93,9.9 C13.07,9.02 13.67,8.52 14.47,8.24 C15.2,7.99 15.95,7.65 16.55,8.5 C16.6,8.57 16.72,8.61 16.72,8.68 C16.89,10.21 18.48,10.19 19.3,11 C20.14,11.82 21.12,12.51 22.06,13.22 C22.75,13.74 23.5,14.16 24.2,14.67 C25.64,15.72 27.06,16.81 28.51,17.86 C28.7,18 28.97,18.04 29.26,18.15 C29.23,18.39 29.2,18.64 29.17,18.89 C29.69,19.02 30.17,19.14 30.66,19.27 C30.65,19.35 30.63,19.42 30.62,19.5 C30.43,19.57 30.23,19.65 30.01,19.73 C30.07,19.84 30.1,19.96 30.15,19.97 C30.79,20.12 31.45,20.21 32.07,20.42 C32.57,20.59 33.03,20.89 33.48,21.17 C34.66,21.88 35.82,22.62 37,23.32 C37.27,23.48 37.64,23.46 37.92,23.61 C39.32,24.35 40.71,25.13 42.11,25.88 C42.4,26.04 42.72,26.13 43.09,26.28 C43.02,26.49 42.94,26.74 42.85,26.98 C42.9,27.02 42.95,27.06 43.01,27.11 C43.17,26.94 43.34,26.77 43.56,26.52 C43.91,26.71 44.32,26.88 44.67,27.14 C45.48,27.74 46.4,28.1 47.3,28.53 C48,28.86 48.57,29.46 49.21,29.93 C49.36,30.04 49.55,30.23 49.7,30.21 C50.2,30.15 50.45,30.42 50.69,30.78 C51.15,31.46 51.58,32.17 52.14,32.76 C52.39,33.02 52.94,32.98 53.39,33.09 C53.43,33.28 53.49,33.58 53.56,33.89 C54.1,33.09 54.42,33.13 55.1,33.71 C55.91,34.4 57.1,34.66 57.9,35.36 C58.6,35.97 59.44,36.06 60.16,36.48 C60.44,36.64 60.55,37.07 60.77,37.43 C61.64,36.8 61.98,37.92 62.62,38.16 C63.61,38.53 64.47,39.44 65.45,39.58 C66.71,39.75 67.38,40.74 68.45,41.13 C69.27,41.43 69.86,42.34 70.62,42.87 C71.34,43.37 71.95,44.22 73.14,43.54 C73.56,43.3 74.4,43.8 74.95,43.93 C75.32,43.61 75.72,43.25 76.12,42.9 L77.95,41.28 C77.99,41.24 78,41.16 78.04,41.15 C79.16,40.88 79.47,39.82 80.1,39.08 C80.38,38.75 80.83,38.56 81.19,38.28 C81.51,38.03 81.78,37.73 82.11,37.5 C82.82,36.99 83.53,36.49 84.27,36.03 C84.88,35.65 85.58,35.4 86.14,34.95 C86.63,34.56 86.98,33.99 87.39,33.49 C87.44,33.43 87.5,33.36 87.56,33.31 C88.5,32.54 89.34,31.49 90.42,31.09 C91.56,30.67 92.04,29.56 93.16,29.16 C94.12,28.82 94.9,27.99 95.8,27.44 C96.09,27.26 96.5,27.29 96.94,27.21 C97.11,26.72 97.44,26.29 98.23,26.15 C98.8,26.05 99.29,25.54 99.82,25.23 C100.74,24.71 101.63,24.15 102.59,23.74 C103.36,23.41 103.9,22.45 104.95,22.8 C104.99,22.82 105.12,22.73 105.14,22.67 C105.4,21.62 106.38,21.53 107.14,21.11 C107.76,20.76 108.32,20.31 108.93,19.92 C109.92,19.29 110.93,18.68 111.93,18.06 C112.19,17.9 112.46,17.74 112.68,17.54 C113.18,17.09 113.74,16.85 114.39,16.62 C115.36,16.27 116.25,15.63 117.07,14.97 C118,14.23 119.06,13.8 120.12,13.35 C120.5,13.19 120.96,13.21 121.43,13.14 C121.49,12.41 121.94,11.97 122.83,12.01 C123.01,12.02 123.31,11.88 123.35,11.74 C123.57,11.1 123.96,11.32 124.34,11.49 C124.52,11.32 124.69,11.13 124.89,10.99 C125.25,10.75 125.62,10.54 126,10.33 C126.24,10.2 126.5,9.98 126.74,10 C127.64,10.05 127.85,9.51 128.03,8.79 C128.14,8.37 128.42,7.67 128.66,7.66 C129.4,7.62 130.33,7.11 130.86,8.21 C131.14,8.78 131.6,9.28 132.02,9.77 C132.53,10.36 132.36,11.81 131.73,12.36 C131.53,12.53 131.39,12.84 131.35,13.11 C131.18,14.53 131.83,15.94 131.34,17.39 C131.19,17.84 131.51,18.45 131.55,18.98 C131.61,19.72 131.63,20.47 131.61,21.22 C131.61,21.36 131.32,21.5 131.3,21.52 C131.36,22.25 131.42,22.89 131.49,23.67 C132.24,23.48 133.08,23.26 134.01,23.02 C134.04,23.07 134.11,23.3 134.27,23.41 C134.35,23.47 134.74,23.27 134.73,23.22 C134.65,22.59 135.05,22.55 135.5,22.51 C135.77,22.48 136.14,22.45 136.26,22.27 C137.02,21.22 138.19,21.34 139.25,21.15 C139.57,21.09 139.91,21.11 140.23,21.02 C141.36,20.71 142.48,21.42 142.45,22.62 C142.41,24.18 142.12,25.74 142.02,27.3 C141.93,28.87 141.89,30.46 141.93,32.03 C141.96,33.28 142.13,34.53 142.24,35.79 C142.31,36.57 142.41,37.36 142.44,38.14 C142.48,39.08 142.23,40.1 142.51,40.95 C142.99,42.4 142.61,43.83 142.75,45.26 C142.85,46.21 142.4,47.23 142.55,48.16 C142.75,49.41 142.51,50.61 142.54,51.84 C142.56,52.59 142.78,53.33 142.8,54.08 C142.82,55.01 142.68,55.94 142.66,56.88 C142.65,57.83 142.71,58.78 142.74,59.73 C142.77,60.69 142.8,61.64 142.81,62.6 C142.82,64.4 142.8,66.19 142.84,67.98 C142.85,68.46 143.25,68.99 143.13,69.41 C142.78,70.71 143.31,71.92 143.3,73.18 C143.3,73.79 143.4,74.4 143.48,75.01 C143.68,76.51 143.96,78.01 144.09,79.52 C144.19,80.73 144.12,81.96 144.14,83.17 C144.15,83.52 144.21,83.88 144.25,84.23 C144.3,84.71 144.32,85.2 144.42,85.67 C144.55,86.28 144.83,86.88 144.87,87.49 C144.95,88.69 144.87,89.91 144.92,91.11 C144.97,92.23 145.14,93.34 145.19,94.46 C145.24,95.7 145.18,96.95 145.2,98.19 C145.21,98.53 145.34,98.87 145.42,99.21 C145.45,99.32 145.55,99.44 145.52,99.52 C144.98,101 146.11,102.56 145.28,104.05 C145.13,104.33 145.53,104.86 145.54,105.29 C145.58,106.54 145.51,107.8 145.55,109.06 C145.58,110.06 145.72,111.06 145.77,112.07 C145.83,113.42 145.84,114.78 145.89,116.13 C145.9,116.39 145.99,116.65 146.04,116.92 C145.98,116.89 145.98,116.95 145.98,117 L145.98,117 Z M17.3,14.09 C17.3,14.52 17.32,14.99 17.3,15.45 C17.18,17.4 17.05,19.36 16.92,21.31 C16.88,21.99 16.84,22.68 16.77,23.36 C16.61,24.91 16.43,26.46 16.26,28.01 C16.25,28.09 16.28,28.18 16.28,28.26 C16.32,28.9 16.42,29.54 16.38,30.18 C16.22,32.74 16.21,35.28 16.71,37.8 C16.78,38.16 16.61,38.57 16.65,38.94 C16.78,39.99 17.01,41.04 17.11,42.09 C17.16,42.6 16.94,43.13 16.96,43.65 C16.98,44.08 17.24,44.49 17.28,44.92 C17.41,46.49 17.67,48.09 17.52,49.64 C17.41,50.73 17.56,51.74 17.61,52.79 C17.74,55.33 17.32,57.88 17.6,60.42 C17.62,60.58 17.54,60.75 17.53,60.92 C17.49,61.52 17.42,62.11 17.42,62.71 C17.42,63.57 17.49,64.43 17.5,65.28 C17.51,66.09 17.46,66.89 17.46,67.7 C17.46,68.96 17.48,70.22 17.49,71.48 C17.5,72.24 17.46,72.99 17.52,73.75 C17.61,74.97 17.77,76.19 17.89,77.42 C17.9,77.5 17.85,77.58 17.85,77.67 C17.75,78.62 17.54,79.58 17.57,80.53 C17.63,82.64 17.86,84.75 17.92,86.86 C17.96,88.38 17.76,89.9 17.82,91.41 C17.88,92.93 18.18,94.43 18.26,95.95 C18.34,97.51 18.3,99.08 18.27,100.65 C18.25,101.51 18.05,102.38 18.1,103.23 C18.22,105.06 18.53,106.88 18.62,108.71 C18.71,110.41 18.6,112.11 18.6,113.81 C18.6,115.92 18.62,118.02 18.63,120.13 C18.63,120.76 18.93,121.11 19.55,121.21 C19.71,121.23 19.89,121.25 20.02,121.33 C20.85,121.85 21.68,122.37 22.48,122.92 C23.33,123.5 24.05,124.18 25.11,124.55 C26.54,125.06 27.81,126.04 29.15,126.8 C30.05,127.31 30.96,127.78 31.87,128.26 C31.97,128.31 32.07,128.36 32.17,128.42 C33.21,129.07 34.24,129.74 35.3,130.36 C36.12,130.84 37.01,131.19 37.79,131.72 C38.42,132.16 39,132.63 39.79,132.75 C39.86,132.76 39.9,132.93 39.98,132.98 C40.9,133.57 41.78,134.26 42.77,134.71 C43.9,135.23 45.17,135.43 46.29,135.96 C47.77,136.65 49.17,137.53 50.61,138.33 C50.68,138.37 50.77,138.44 50.77,138.5 C50.77,139.33 51.56,139.13 51.96,139.43 C52.22,139.62 52.52,139.75 52.8,139.93 C53.65,140.46 54.45,141.06 55.34,141.51 C56.49,142.08 57.75,142.42 58.87,143.04 C60.09,143.71 61.26,144.44 62.54,145.03 C64.61,145.98 66.71,146.97 68.46,148.51 C68.82,148.83 69.3,149 69.72,149.26 C70.25,149.59 70.77,149.95 71.3,150.29 C71.37,150.21 71.45,150.13 71.53,150.05 C71.31,149.74 71.09,149.42 70.94,149.21 C71,148.71 71.05,148.28 71.09,147.86 C71.17,146.97 71.29,146.09 71.32,145.2 C71.34,144.47 71.34,143.71 71.21,143 C71,141.87 70.58,140.78 70.96,139.61 C71.03,139.38 71.05,139.12 71.03,138.87 C70.98,138 70.85,137.13 70.86,136.26 C70.87,135.32 71.06,134.39 71.09,133.45 C71.13,131.9 71.04,130.35 71.12,128.8 C71.23,126.6 71,124.35 71.84,122.22 C71.91,122.04 71.86,121.77 71.78,121.57 C71.4,120.6 71.37,119.66 71.47,118.59 C71.67,116.45 71.6,114.28 71.59,112.12 C71.58,110.56 71.29,109 71.79,107.46 C71.83,107.35 71.71,107.19 71.71,107.06 C71.7,106.27 71.68,105.48 71.72,104.69 C71.75,104.04 72.08,103.42 71.58,102.77 C71.38,102.51 71.46,102.01 71.49,101.62 C71.59,100.67 71.81,99.73 71.83,98.78 C71.84,98.12 71.53,97.47 71.49,96.8 C71.43,95.38 71.43,93.95 71.45,92.53 C71.46,91.85 71.57,91.17 71.67,90.49 C71.81,89.5 72.16,88.51 72.11,87.53 C72.04,86.14 71.57,84.76 71.49,83.37 C71.38,81.31 71.45,79.24 71.45,77.17 C71.45,75.49 71.43,73.8 71.49,72.12 C71.53,70.9 71.7,69.68 71.8,68.46 C71.92,67.01 72.11,65.56 72.11,64.12 C72.1,62.67 71.88,61.23 71.75,59.78 C71.67,58.93 71.36,58.04 71.54,57.25 C71.87,55.78 71.48,54.37 71.48,52.93 C71.48,51.95 71.2,50.98 71.15,49.99 C71.12,49.39 71,49.16 70.35,49.12 C70,49.1 69.64,48.74 69.34,48.47 C69.02,48.18 68.8,47.77 68.47,47.5 C67.91,47.04 67.24,46.7 66.71,46.21 C65.88,45.46 65.04,44.76 63.97,44.38 C63.7,44.28 63.49,44.01 63.24,43.85 C62.4,43.31 61.59,42.45 60.68,42.31 C59.34,42.1 58.55,41.07 57.38,40.64 C56.33,40.25 55.43,39.48 54.44,38.92 C53.42,38.34 52.33,37.89 51.35,37.25 C50.5,36.7 49.79,35.92 48.96,35.33 C48.21,34.8 47.31,34.47 46.61,33.89 C45.79,33.21 44.69,33.12 43.89,32.31 C43.13,31.53 41.96,31.15 40.98,30.59 C40.26,30.17 39.56,29.72 38.83,29.32 C37.84,28.78 36.83,28.29 35.83,27.76 C34.85,27.24 33.86,26.72 32.89,26.18 C32.12,25.75 31.35,25.31 30.61,24.83 C30.01,24.44 29.51,23.75 28.87,23.6 C28.21,23.45 27.87,23.06 27.44,22.69 C26.4,21.8 25.33,20.94 24.28,20.06 C23.93,19.77 23.57,19.48 23.27,19.14 C22.61,18.4 22.08,17.52 21.33,16.91 C20.02,15.88 18.66,15.04 17.3,14.09 L17.3,14.09 Z M126.66,15.16 C125.47,15.73 124.23,16.16 123.21,16.88 C122.04,17.7 120.62,17.98 119.52,18.94 C118.89,19.49 118.21,20.12 117.25,20.35 C116.55,20.51 115.97,21.19 115.35,21.65 C114.59,22.21 113.86,22.83 113.06,23.33 C112.25,23.84 111.35,24.23 110.51,24.71 C109.23,25.45 107.98,26.24 106.69,26.97 C105.12,27.87 103.49,28.67 101.95,29.61 C100.33,30.6 98.77,31.71 97.21,32.79 C96.72,33.13 96.28,33.56 95.81,33.92 C95.11,34.46 94.38,34.95 93.71,35.51 C92.85,36.22 92.09,37.07 91.18,37.69 C89.9,38.56 88.5,39.26 87.16,40.05 C86.54,40.42 85.83,40.73 85.35,41.24 C84.39,42.28 83.53,43.41 82.33,44.21 C82.02,44.42 81.83,44.81 81.51,45 C80.64,45.53 80.14,46.5 79.09,46.88 C78.39,47.13 77.62,47.68 77.27,48.31 C76.9,48.99 76.49,49.24 75.73,49.22 C75.79,50.39 75.76,51.51 75.92,52.6 C76.05,53.44 76.44,54.23 75.81,55.02 C75.75,55.1 75.87,55.32 75.91,55.48 C75.99,55.76 76.12,56.04 76.14,56.33 C76.19,56.98 76.13,57.64 76.21,58.29 C76.39,59.89 76.74,61.48 76.81,63.09 C76.91,65.2 76.9,67.33 76.78,69.45 C76.67,71.34 76.32,73.23 76.53,75.13 C76.68,76.5 76.3,77.82 76.5,79.22 C76.81,81.34 76.74,83.51 76.85,85.66 C76.89,86.51 77.06,87.37 77.01,88.22 C76.96,89.32 76.69,90.4 76.62,91.49 C76.54,92.83 76.56,94.18 76.55,95.52 C76.53,99.93 76.53,104.33 76.48,108.74 C76.47,109.85 76.25,110.96 76.22,112.07 C76.2,112.81 76.37,113.55 76.41,114.29 C76.43,114.69 76.36,115.1 76.32,115.5 C76.3,115.69 76.2,115.87 76.19,116.05 C76.17,116.97 76.18,117.88 76.16,118.8 C76.14,119.82 76.1,120.84 76.09,121.86 C76.08,122.54 76.13,123.21 76.1,123.88 C76.06,124.76 75.94,125.64 75.91,126.52 C75.9,126.9 76.12,127.28 76.11,127.65 C76.05,129.55 75.79,131.46 75.9,133.35 C75.98,134.81 75.92,136.24 75.82,137.68 C75.8,137.95 75.51,138.23 75.53,138.49 C75.61,139.38 75.82,140.26 75.89,141.15 C76.02,142.75 76.14,144.36 76.14,145.96 C76.14,146.96 75.9,147.95 75.78,148.86 C75.91,149.57 76.06,150.24 76.14,150.92 C76.23,151.72 76.55,151.78 77.31,151.54 C78.52,151.15 79.37,150.02 80.73,149.99 C80.89,149.99 81.04,149.77 81.2,149.66 C81.54,149.42 81.87,149.16 82.22,148.95 C82.5,148.78 82.83,148.7 83.1,148.52 C84.04,147.92 84.94,147.23 85.91,146.68 C87.39,145.84 88.96,145.15 90.42,144.27 C91.85,143.41 93.2,142.4 94.57,141.43 C95.58,140.72 96.53,139.91 97.57,139.24 C98.04,138.94 98.71,138.67 99.21,138.78 C100,138.95 100.16,138.41 100.51,138.02 C100.95,137.53 101.37,137 101.87,136.57 C102.19,136.29 102.68,136.21 103.03,135.96 C103.66,135.51 104.2,134.93 104.86,134.52 C105.99,133.82 107.17,133.22 108.34,132.58 C108.49,132.5 108.75,132.47 108.78,132.36 C109.19,131.15 110.95,131.75 111.3,130.47 C111.32,130.42 111.57,130.44 111.7,130.4 C111.96,130.31 112.24,130.25 112.45,130.1 C113.32,129.48 114.26,128.98 115.07,128.23 C115.63,127.72 116.21,126.67 117.38,126.98 C117.61,127.04 118.02,126.75 118.24,126.52 C118.7,126.04 119.15,125.67 119.86,125.59 C120.27,125.55 120.68,125.26 121.06,125.03 C121.83,124.58 122.57,124.08 123.35,123.63 C123.91,123.3 124.51,123.04 125.08,122.72 C125.52,122.48 125.92,122.02 126.36,122 C127.4,121.95 127.97,121.18 128.75,120.74 C129.22,120.47 129.47,120.22 129.32,119.56 C129.16,118.79 129.3,117.95 129.28,117.14 C129.25,115.85 129.21,114.56 129.14,113.27 C129.1,112.49 128.98,111.71 128.93,110.93 C128.89,110.34 128.91,109.75 128.88,109.16 C128.82,107.77 128.76,106.39 128.7,105 C128.66,104.13 128.62,103.26 128.56,102.39 C128.49,101.51 128.34,100.63 128.32,99.75 C128.3,98.95 128.54,98.2 128.41,97.32 C128.14,95.56 128.31,93.74 128.3,91.95 C128.29,90.11 128.27,88.27 128.25,86.43 C128.24,85.84 128.15,85.25 128.16,84.66 C128.19,82.97 128.26,81.29 128.32,79.6 C128.33,79.44 128.36,79.23 128.47,79.15 C128.99,78.75 128.81,78.26 128.67,77.79 C128.55,77.37 128.21,76.97 128.21,76.55 C128.21,75.53 128.35,74.52 128.44,73.5 C128.52,72.54 128.59,71.58 128.65,70.62 C128.66,70.5 128.61,70.37 128.58,70.24 C128.42,69.55 128.16,68.87 128.13,68.18 C128.08,67.05 128.2,65.92 128.23,64.79 C128.24,64.6 128.15,64.41 128.13,64.22 C128.02,63.16 127.88,62.1 127.81,61.03 C127.75,60.13 127.81,59.22 127.72,58.32 C127.56,56.68 127.33,55.04 127.15,53.4 C127.06,52.53 127,51.65 126.95,50.78 C126.85,49.03 126.59,47.27 126.71,45.53 C126.85,43.47 126.8,41.48 126.05,39.54 C126.01,39.44 125.99,39.32 126,39.21 C126.03,37.92 126.06,36.64 126.11,35.35 C126.13,34.98 126.23,34.62 126.27,34.25 C126.31,33.85 126.32,33.45 126.34,33.05 C126.22,31.47 125.79,29.9 126.56,28.4 C126.39,28.27 126.01,28.09 126.03,27.97 C126.2,26.85 126.5,25.74 126.63,24.61 C126.75,23.53 126.71,22.44 126.74,21.35 C126.75,20.82 126.77,20.28 126.77,19.75 C126.67,18.16 126.66,16.66 126.66,15.16 L126.66,15.16 Z M137.81,41.15 C137.26,41.22 137.32,40.8 137.46,40.3 C137.5,40.17 137.49,40.02 137.48,39.88 C137.36,38.08 137.2,36.28 137.12,34.48 C137.07,33.33 137.12,32.18 137.12,31.03 L137.12,26.97 C136.5,27.04 135.85,27.09 135.2,27.19 C134.83,27.24 134.45,27.32 134.11,27.46 C133.18,27.82 132.3,28.36 131.24,28.29 C131.2,28.29 131.16,28.35 131.07,28.42 C131.07,29.43 131.12,30.48 131.06,31.52 C130.98,32.98 130.73,34.43 130.72,35.89 C130.71,37.21 130.87,38.53 131.04,39.84 C131.16,40.8 131.52,41.74 131.57,42.7 C131.66,44.44 131.61,46.18 131.61,47.93 C131.61,48.73 131.55,49.54 131.6,50.34 C131.64,50.96 131.85,51.57 131.94,52.19 C132.12,53.44 132.33,54.69 132.41,55.95 C132.47,56.76 132.33,57.58 132.27,58.47 C132.35,58.61 132.6,58.87 132.61,59.14 C132.67,59.97 132.64,60.81 132.64,61.64 C132.64,62.16 132.56,62.69 132.62,63.21 C132.7,63.97 132.92,64.72 133,65.48 C133.12,66.59 133.21,67.7 133.22,68.81 C133.23,69.49 132.92,70.22 133.05,70.85 C133.18,71.45 133.19,71.77 132.45,71.97 C133.78,72.41 133.11,73.42 133.23,74.18 C133.25,74.32 132.88,74.53 132.79,74.61 C132.92,74.99 133.13,75.35 133.14,75.72 C133.17,76.86 133.12,77.99 133.1,79.13 C133.08,80.13 133.03,81.13 133.05,82.12 C133.08,83.76 133.17,85.39 133.22,87.02 C133.28,88.84 133.35,90.66 133.35,92.47 C133.35,94.85 133.25,97.23 133.28,99.61 C133.3,101.25 133.48,102.88 133.59,104.51 C133.66,105.56 133.81,106.62 133.8,107.67 C133.79,108.93 133.36,110.19 133.9,111.43 C133.93,111.51 133.84,111.63 133.84,111.73 C133.82,112.55 133.74,113.38 133.79,114.19 C133.85,115.04 134.25,115.92 134.12,116.73 C133.89,118.16 134.35,119.74 133.35,121.04 C133.28,121.13 133.4,121.35 133.42,121.52 C133.54,122.39 133,123.6 132.37,123.91 C131.35,124.42 130.31,124.91 129.31,125.45 C128.68,125.79 128.14,126.32 127.48,126.59 C126.78,126.89 126.08,127.05 125.49,127.65 C124.99,128.17 124.25,128.47 123.6,128.83 C122.44,129.48 121.25,130.06 120.12,130.75 C119.28,131.27 118.51,131.9 117.74,132.51 C117.49,132.71 117.34,133.04 117.09,133.25 C116.59,133.67 116.09,134.11 115.52,134.42 C114.55,134.96 113.51,135.35 112.55,135.9 C110.49,137.08 108.46,138.32 106.43,139.55 C106.28,139.64 106.2,139.83 106.14,139.91 C106.49,140.06 106.81,140.32 107.09,140.28 C107.92,140.15 108.79,140.03 109.55,139.69 C111,139.03 112.36,138.17 113.8,137.5 C115.67,136.62 117.61,135.87 119.47,134.99 C120.53,134.49 121.51,133.85 122.52,133.24 C124.05,132.32 125.56,131.37 127.08,130.45 C127.22,130.37 127.41,130.39 127.57,130.34 C128.34,130.08 129.11,129.81 129.88,129.56 C130.48,129.37 131.08,129.19 131.68,129 C131.86,128.94 132.05,128.89 132.2,128.8 C132.6,128.55 132.97,128.22 133.39,128.01 C134.57,127.45 135.76,126.91 136.96,126.4 C137.64,126.11 138.33,125.76 139.05,125.66 C140.15,125.52 140.85,124.8 140.79,123.64 C140.75,122.99 140.78,122.32 140.81,121.67 C140.86,120.44 140.96,119.2 140.97,117.97 C140.97,116.93 140.78,115.9 141.12,114.85 C141.31,114.25 141.41,113.34 141.08,112.91 C140.43,112.04 140.85,111.13 140.64,110.26 C140.4,109.27 140.6,108.19 140.56,107.15 C140.53,106.22 140.42,105.29 140.39,104.35 C140.38,104.07 140.59,103.78 140.58,103.49 C140.57,102.8 140.43,102.11 140.46,101.42 C140.51,100.13 140.11,98.82 140.58,97.54 C140.67,97.3 140.6,96.98 140.55,96.7 C140.45,96.02 140.25,95.35 140.22,94.66 C140.17,93.73 140.32,92.79 140.25,91.86 C140.15,90.43 139.96,89 139.77,87.57 C139.72,87.17 139.39,86.77 139.44,86.4 C139.62,85.18 139.47,84.03 139.18,82.83 C138.9,81.64 139.12,80.31 138.78,79.14 C138.3,77.47 138.71,75.77 138.3,74.1 C137.96,72.74 137.9,71.3 137.72,69.9 C137.65,69.32 137.59,68.74 137.57,68.16 C137.54,67.56 137.62,66.95 137.53,66.36 C137.27,64.57 137.29,62.83 138.05,61.13 C137.49,60.7 137.3,60.21 137.5,59.45 C137.7,58.7 137.65,57.88 137.67,57.09 C137.69,56.18 137.69,55.26 137.67,54.35 C137.65,53.4 137.59,52.46 137.55,51.51 C137.49,50.21 137.36,48.92 137.37,47.62 C137.38,46.05 138.02,44.52 137.66,42.91 C137.52,42.38 137.73,41.8 137.81,41.15 L137.81,41.15 Z M49.1,144.19 C49.79,144.66 50.31,145.05 50.86,145.37 C50.94,145.42 51.17,145.2 51.34,145.11 C50.98,144.7 50.69,144.19 50.25,143.91 C49.45,143.4 48.45,143.15 47.73,142.56 C47.11,142.05 46.44,141.75 45.74,141.46 C45.16,141.22 44.48,141.09 44.04,140.68 C42.98,139.69 41.61,139.38 40.36,138.81 C39.65,138.49 38.9,138.26 38.22,137.91 C37.37,137.47 36.57,136.94 35.75,136.46 C34.79,135.9 33.75,135.47 32.9,134.79 C31.82,133.93 30.69,133.17 29.46,132.54 C29.11,132.36 28.83,132.05 28.5,131.8 C28.38,131.71 28.25,131.62 28.12,131.56 C27.54,131.32 26.91,131.18 26.39,130.85 C25.72,130.43 25.17,129.8 24.49,129.38 C23.16,128.54 21.75,127.82 20.42,126.98 C19.14,126.18 17.92,125.29 16.67,124.43 C16.56,124.35 16.41,124.28 16.34,124.17 C15.89,123.36 15.06,123.19 14.29,122.86 C13.85,122.67 13.33,122.14 13.28,121.72 C13.19,121.05 13.38,120.29 13.61,119.63 C14.23,117.89 13.98,116.07 14.05,114.3 C14.13,112.38 13.74,110.45 13.6,108.52 C13.56,107.95 13.72,107.36 13.67,106.79 C13.57,105.39 13.4,104 13.26,102.6 C13.25,102.52 13.28,102.43 13.28,102.35 C13.34,101.46 13.4,100.57 13.47,99.68 C13.63,97.66 13.72,95.64 13.28,93.63 C13.12,92.89 13.03,92.12 13.03,91.37 C13.03,89.6 13.11,87.83 13.13,86.05 C13.14,84.65 13.12,83.24 13.1,81.83 C13.09,80.84 13.06,79.86 13.05,78.87 C13.05,78.07 13.07,77.26 13.09,76.46 C13.1,76.22 13.14,75.97 13.13,75.73 C13.08,74.28 13.02,72.82 12.95,71.37 C12.87,69.61 13.29,67.83 12.75,66.08 C12.71,65.96 12.78,65.8 12.78,65.67 C12.8,64.54 13.3,63.48 13.06,62.28 C12.85,61.24 12.94,60.14 12.92,59.06 C12.9,58.22 12.89,57.37 12.93,56.53 C13,54.77 13.16,53.02 13.18,51.26 C13.19,50.13 13.02,48.99 12.94,47.86 C12.9,47.34 12.9,46.82 12.89,46.3 C12.81,44.09 12.74,41.87 12.66,39.66 C12.66,39.52 12.67,39.37 12.6,39.26 C11.97,38.14 12.11,36.89 12.03,35.68 C11.98,34.97 12.31,34.2 12.15,33.52 C11.87,32.31 11.82,31.17 12.23,30 C12.37,29.59 12.26,29.39 11.79,29.22 C10.57,28.78 9.39,28.23 8.19,27.72 C7.54,27.44 6.91,27.14 6.27,26.84 C6,26.71 5.73,26.58 5.46,26.44 C5.4,26.78 5.3,27.12 5.3,27.46 C5.31,27.91 5.49,28.38 5.43,28.81 C5.25,29.95 4.93,31.06 5.4,32.22 C5.54,32.57 5.38,33.05 5.36,33.47 C5.34,33.9 5.29,34.34 5.34,34.77 C5.45,35.74 5.65,36.7 5.73,37.67 C5.81,38.67 5.74,39.68 5.84,40.68 C6.01,42.49 6.29,44.28 6.46,46.08 C6.6,47.68 6.38,49.28 6.77,50.88 C7.08,52.14 7.04,53.48 7.15,54.79 C7.21,55.58 7.18,56.38 7.33,57.15 C7.54,58.25 8.01,59.31 8.12,60.42 C8.27,61.96 8.19,63.53 8.23,65.08 C8.25,66 8.29,66.92 8.34,67.84 C8.39,68.61 8.5,69.39 8.54,70.16 C8.6,71.41 8.58,72.66 8.67,73.91 C8.82,76.16 9.06,78.41 9.18,80.66 C9.26,82.05 9.17,83.46 9.17,84.85 C9.17,85.69 9.15,86.53 9.21,87.36 C9.28,88.41 9.48,89.44 9.5,90.49 C9.55,92.52 9.53,94.55 9.51,96.58 C9.5,97.58 9.37,98.57 9.34,99.57 C9.31,100.88 9.37,102.19 9.32,103.5 C9.25,105.29 9.04,107.07 9,108.86 C8.97,110.24 9.07,111.62 9.18,113 C9.4,115.64 9.67,118.28 9.93,120.91 C9.98,121.46 10.12,122 10.15,122.55 C10.19,123.32 10.16,124.1 10.16,124.72 C10.32,125.24 10.47,125.62 10.55,126.02 C10.75,127.08 10.31,128.54 12.17,128.5 C12.19,128.5 12.22,128.52 12.24,128.54 C13.33,129.52 14.84,129.71 16,130.64 C16.93,131.39 18.18,131.72 19.28,132.25 C21.19,133.17 23.09,134.09 24.99,135.01 C25.76,135.39 26.5,135.83 27.29,136.15 C28.34,136.58 29.48,136.92 30.46,137.38 C32.25,138.23 34.2,138.33 35.97,139.14 C37.58,139.88 39.33,140.33 40.98,140.98 C42.68,141.66 44.35,142.44 46.03,143.17 C46.35,143.31 46.75,143.33 47.01,143.54 C47.67,144.04 48.38,144.4 49.1,144.19 L49.1,144.19 Z M52.9,146.35 C52.97,146.24 53.04,146.12 53.11,146.01 C52.8,145.76 52.51,145.48 52.17,145.3 C52.04,145.23 51.78,145.43 51.58,145.5 C51.58,145.59 51.57,145.68 51.56,145.77 C52.01,145.96 52.46,146.15 52.9,146.35 L52.9,146.35 Z M104.13,141.23 C104.18,141.3 104.24,141.38 104.29,141.45 C104.57,140.98 105.78,141.71 105.46,140.33 C104.98,140.66 104.56,140.95 104.13,141.23 L104.13,141.23 Z" id="Capitulo2"></path>
        </g>
    </g>
</svg>