<?xml version="1.0" encoding="UTF-8" standalone="no"?>
<svg width="40px" height="40px" viewBox="0 0 40 40" version="1.1" xmlns="http://www.w3.org/2000/svg" xmlns:xlink="http://www.w3.org/1999/xlink">
    <!-- Generator: Sketch 3.7 (28169) - http://www.bohemiancoding.com/sketch -->
    <title>facebook</title>
    <desc>Created with Sketch.</desc>
    <defs></defs>
    <g id="Page-1" stroke="none" stroke-width="1" fill="none" fill-rule="evenodd">
        <g id="facebook" fill="#FFFFFF">
            <path d="M40,37.5 C40,38.88 38.88,40 37.5,40 L2.5,40 C1.12,40 0,38.88 0,37.5 L0,2.5 C0,1.12 1.12,0 2.5,0 L37.5,0 C38.88,0 40,1.12 40,2.5 L40,37.5 Z M27.5,40 L27.5,25 L32.5,25 L33.75,18.75 L27.5,18.75 L27.5,16.25 C27.5,13.75 28.7525,12.5 31.25,12.5 L33.75,12.5 L33.75,6.25 L28.75,6.25 C24.15625,6.25 21.25,9.85125 21.25,15 L21.25,18.75 L16.25,18.75 L16.25,25 L21.25,25 L21.25,40 L27.5,40 Z" id="Combined-Shape"></path>
        </g>
    </g>
</svg>