<?xml version="1.0" encoding="utf-8"?>
<!-- Generator: Adobe Illustrator 16.0.0, SVG Export Plug-In . SVG Version: 6.00 Build 0)  -->
<!DOCTYPE svg PUBLIC "-//W3C//DTD SVG 1.1//EN" "http://www.w3.org/Graphics/SVG/1.1/DTD/svg11.dtd">
<svg version="1.1" id="Layer_1" xmlns="http://www.w3.org/2000/svg" xmlns:xlink="http://www.w3.org/1999/xlink" x="0px" y="0px"
	 width="787.333px" height="132px" viewBox="-154.998 5.832 787.333 132" enable-background="new -154.998 5.832 787.333 132"
	 xml:space="preserve">
<g>
	<g>
		<path fill="#FF0000" d="M402.148,56.642c-1.17,0.84-2.531,0.838-3.354,2.01c2.229,1.303,0.869,3.311,0.6,4.859
			c-0.93,5.322-1.803,10.729-3.523,15.814c-2.219,6.564-3.318,13.283-4.6,20.013c-0.404,2.109-1.047,4.186-1.598,6.281
			c-0.484,1.861-0.623,3.539,0.617,5.232c0.457,0.619,0.354,1.688,0.449,2.561c0.09,0.896,0.48,1.166,1.35,0.85
			c2.281-0.871,4.592-1.514,7.072-1.637c0.828-0.041,1.729-1.008,2.371-1.742c3.473-3.951,7.145-7.691,9.658-12.449
			c1.717-3.254,3.273-6.654,5.164-9.732c3.789-6.176,5.221-13.027,6.914-19.804c0.912-3.637,1.682-7.336,2.541-10.99
			c0.43-1.84,2.109-2.744,3.586-3.266c4.098-1.484,8.066-1.105,11.688,1.957c-4.268,1.631-3.813,5.719-4.74,8.982
			c-0.838,2.977-1.186,6.113-1.633,9.188c-0.846,5.836-2.643,11.447-4.158,17.109c-1.111,4.18-2.012,8.428-3.047,12.639
			c-0.209,0.861-0.357,1.594,0.613,2.068c0.428,0.207,0.48,0.65,0.471,1.047c-0.109,3.154-0.029,6.352-1.434,9.416
			c3.344-0.094,6.66-0.086,9.93-0.359c1.619-0.125,2.652,0.912,3.906,1.449c0.709,0.295,0.324,1.289-0.533,1.633
			c-3.604,1.443-7.045,3.221-11.082,3.514c-2.578,0.195-4.854,1.902-7.502,2.373c-2.164,0.387-4.277,1.152-6.494,1.455
			c-0.67,0.08-1.377,0.465-1.77-0.393c-0.357-0.783-1.047-1.729-0.422-2.477c1.682-2.049,1.705-4.439,1.93-6.867
			c0.244-2.691,0.74-5.363,1.098-8.045c0.063-0.461,0.506-1.195-0.348-1.316c-0.742-0.125-1.621,0.51-1.441,1.08
			c0.578,1.789-0.703,2.775-1.65,3.486c-4.059,3.016-6.889,7.432-11.484,9.822c-3.977,2.064-8.002,3.979-12.314,5.143
			c-4.445,1.193-6.957-0.4-9.975-3.762c-4.344-4.848-4.844-10.322-3.252-15.924c1.377-4.836,2.748-9.686,3.91-14.578
			c1.557-6.51,2.42-13.166,3.445-19.783c0.305-1.996,0.805-3.979,1.174-5.969c0.135-0.693,0.623-1.318-0.916-1.361
			c-2.885-0.08-5.746-0.797-8.668-0.576c-0.855,0.066-1.402-0.336-1.705-1.131c-0.309-0.795-0.225-1.439,0.533-1.951
			c0.443-0.311,0.732-0.779,0.861-1.328c0.334-1.436,1.363-2.271,2.59-2.918c6.299-3.279,13.045-4.488,20.066-3.963
			C398.826,54.427,400.523,55.331,402.148,56.642z"/>
		<path fill="#FF0000" d="M557.013,65.827c-3.293,3.236-6.34,6.08-9.209,9.098c-1.904,1.988-3.689,4.068-5.701,5.982
			c-2.371,2.271-4.102,5.339-4.922,8.515c-1.305,4.988-3.383,9.637-5.35,14.346c-1.096,2.6-0.867,5.447-1.262,8.195
			c-0.443,3.008-0.564,6.07-0.738,9.123c-0.104,1.734-0.834,3.258-1.326,4.867c-0.201,0.689-0.715,1.219-1.385,1.393
			c-2.33,0.629-4.688,1.213-7.113,0.529c-3.074-0.867-4.281-3.859-3.297-6.918c0.889-2.734,1.439-5.627,1.768-8.5
			c0.941-8.258,2.711-16.387,3.869-24.613c1-7.097,2.061-14.177,2.27-21.378c0.029-0.9-0.318-0.863-1.029-0.877
			c-2.307-0.088-4.625,0.18-6.904-0.689c-1.479-0.541-2.654-1.379-2.533-2.844c0.121-1.334,1.143-2.607,2.564-3.029
			c1.537-0.449,2.826-1.133,4.008-2.223c1.713-1.578,4.039-1.582,6.191-1.93c2.582-0.447,5.184,0.193,7.799-0.037
			c2.865-0.268,4.176,1.311,4.727,4.105c0.9,4.525-1.107,8.34-2.531,12.32c-0.342,0.957-0.738,1.869-0.652,3.137
			c2.291-1.838,4.074-3.984,5.723-6.166c2.514-3.336,4.646-6.945,7.645-9.912c1.557-1.537,2.385-3.811,4.754-4.529
			c0.598-0.164,1.16-0.453,1.762-0.248c3.225,1.146,6.588,1.568,9.957,1.994c3.547,0.453,4.855,2.469,3.715,5.834
			c-0.816,2.422-1.547,4.85-2.582,7.213c-0.998,2.301-0.678,4.891-1.137,7.34c-0.387,2.041-1.238,3.145-3.047,3.732
			c-0.51,0.16-1.012,0.387-1.541,0.451c-1.479,0.203-3.127,0.631-4.406-0.08c-1.781-1.018-0.248-2.678-0.102-3.969
			C557.379,72.847,557.603,69.647,557.013,65.827z"/>
		<path fill="#FF0000" d="M340.519,70.45c3.241-4.967,7.248-9.277,11.461-13.412c2.924-2.865,6.246-4.305,10.521-2.973
			c2.133,0.66,4.502,0.781,6.766,0.811c1.588,0.006,1.557,0.748,1.465,1.855c-0.422,5.086-2.043,9.887-3.545,14.713
			c-0.275,0.896-0.521,1.807-0.742,2.693c-0.973,3.832-4.006,5.305-7.168,6.719c-1.033,0.464-1.373,0.039-1.672-0.969
			c-0.563-1.879-0.529-3.736-0.207-5.625c0.434-2.492,0.91-4.979,1.17-7.615c-2.543,4.117-7.109,6.164-9.682,10.375
			c-3.281,5.39-6.497,10.876-10.873,15.556c-1.566,1.67-1.525,4.266-2.206,6.432c-1.946,6.238-2.222,12.783-2.994,19.207
			c-0.513,4.227-2.565,7.439-5.122,10.455c-1.025,1.195-2.654,2.236-4.151,0.232c-0.192-0.254-0.349-0.559-0.8-0.314
			c-2.035,1.113-2.309-0.967-2.489-1.807c-0.89-4.137-0.931-8.352,0.214-12.436c1.293-4.602,2.3-9.295,3.653-13.826
			c1.632-5.453,2.274-10.998,2.867-16.52c0.56-5.232,1.402-10.455,1.538-15.748c0.037-1.496-0.518-1.527-1.611-1.309
			c-2.795,0.564-5.607,0.848-8.461,0.543c-1.267-0.127-1.912-0.695-2.172-1.965c-0.521-2.486,0.592-4.818,2.748-6.109
			c3.201-1.928,6.711-2.795,10.314-3.482c1.989-0.373,4.012-0.746,5.784-1.816c0.536-0.316,0.994-0.307,1.54-0.158
			c0.586,0.166,1.177,0.332,1.778,0.379c4.284,0.363,4.147,0.328,3.122,4.738c-0.665,2.885-0.867,5.873-1.272,8.818
			c-0.312,0.76-0.271,1.572-0.281,2.383C340,70.716,340.281,70.591,340.519,70.45z"/>
		<path fill="#FF0000" d="M340.519,70.45c-0.178,0.318-0.357,0.65-0.82,1.465c0.051-1.725,0.128-2.889,0.582-4.008
			C340.541,68.739,339.937,69.636,340.519,70.45z"/>
		<path fill="#FF0000" d="M509.306,73.022c-0.199-2.447-1.051-4.707-1.332-7.055c-0.594-4.951-3.209-8.359-7.563-10.23
			c-3.207-1.383-6.619-2.607-10.291-2.125c-0.52-0.229-1.041-0.361-1.582-0.072c-0.135,0.43-0.434,0.789-0.863,0.744
			c-2.873-0.307-4.498,1.943-6.193,3.471c-3.455,3.117-6.254,6.926-8.725,10.877c-2.166,3.457-4.273,6.92-6.803,10.189
			c-0.098-0.166-0.154-0.238-0.15-0.279c1.555-8.104,3.215-16.186,3.971-24.434c0.217-2.348,1.006-4.586,1.975-6.756
			c1.715-3.824,3.277-7.703,3.906-11.906c0.467-3.139,0.738-6.336,1.59-9.377c1.543-5.526-1.527-8.466-6.191-9.497
			c-0.75-0.165-1.426-0.444-1.992-0.941c-0.686-0.584-1.283-0.498-2.182-0.318c-4.873,1.039-9.631,2.657-14.623,3.09
			c-1.852,0.146-2.711,0.861-2.553,2.737c0.049,0.534,0.061,1.079,0.031,1.623c-0.061,1.59,0.611,2.361,2.26,2.104
			c1.344-0.199,2.48,0.143,3.514,1.102c0.73,0.695,1.76,0.949,2.715,1.303c1.396,0.521,3.492-0.457,4.16,1.1
			c0.563,1.318,0.086,3.063,0.063,4.629c-0.004,0.531,0.02,1.078-0.027,1.607c-1.227,12.275-3.783,24.354-5.002,36.617
			c-0.18,1.859-1.352,3.338-1.457,5.094c-0.09,1.482-0.168,2.967-0.416,4.434c-0.943,5.748-1.934,11.49-2.898,17.234
			c-1.047,6.311-2.814,12.484-3.609,18.855c-0.311,2.512-1.318,4.932-1.965,7.406c-0.311,1.158-0.227,2.361,0.549,3.246
			c0.494,0.57,1.449,0.141,2.027-0.16c3.611-1.814,7.223-1.344,11.049-0.738c3.123,0.498,6.074,1.834,9.332,1.73
			c5.408-0.172,10.207-2.371,15.15-4.137c2.531-0.914,4.637-2.518,6.615-4.25c1.846-1.607,3.35-3.404,4.221-5.926
			c0.689-2.02,0.846-4.52,2.682-5.969c1.303-1.027,2.043-2.313,2.736-3.693c3.232-6.457,4.961-13.391,6.398-20.428
			C508.564,80.341,509.613,76.821,509.306,73.022z M496.121,76.517c-0.547,4.49-1.33,8.945-1.746,13.486
			c-0.264,2.85-1.852,5.436-3.004,8.096c-1.596,3.65-2.051,7.826-4.418,11.068c-2.953,4.006-5.744,8.373-10.949,10.01
			c-0.939,0.283-1.834,0.428-2.781,0.127c-3.535-1.088-7.066-2.244-10.652-3.203c-1.525-0.398-1.514-1.023-1.035-2.287
			c1.762-4.674,3.484-9.336,6.18-13.604c2.172-3.455,2.836-7.602,4.916-11.121c0.17-0.305,0.32-0.691,0.021-0.941
			c-1.428-1.201-0.277-2.32,0.096-3.436c2.166-6.488,7.432-11.003,10.762-16.748c0.783-1.348,2.564-1.514,3.99-1.652
			c0.75-0.076,1.408-0.223,2.07-0.477c2.699-1.01,2.721-1.035,3.822,1.604c0.348,0.811,0.555,1.666,0.832,2.498
			c0.129,0.383,0.229,0.975,0.5,1.09C497.679,72.241,495.931,74.603,496.121,76.517z"/>
		<path fill="#FF0000" d="M623.568,68.3c-0.771-3.449-1.803-6.986-5.352-8.914c-0.645-0.342-1.365-0.398-1.982-0.914
			c-5.533-4.66-11.783-6.229-18.82-4.111c-0.59,0.578-1.357,0.543-2.098,0.646c-4.131,1.068-7.416,3.723-10.748,6.117
			c-3.24,2.336-5.881,5.424-8.42,8.535c-1.906,2.348-3.602,4.979-4.83,7.58c-3.592,7.558-5.834,15.595-5.389,24.134
			c0.057,1.148-0.313,2.367-0.023,3.428c1.027,3.75,2.211,7.457,3.424,11.141c0.652,1.992,1.518,3.855,2.936,5.48
			c3.164,3.625,7.486,5.441,11.496,7.764c0.566,0.336,1.166,0.209,1.775,0.072c2.162-0.467,4.32-0.869,6.354-1.865
			c2.586-1.271,5.271-2.311,7.893-3.512c2.709-1.234,4.584-3.533,6.691-5.508c3.514-3.271,6.885-6.754,9.156-11.041
			c4.092-7.664,7.066-15.658,7.998-24.449C624.144,77.968,624.646,73.103,623.568,68.3z M609.929,95.11
			c0.014,0.492-0.248,1.043-0.465,1.518c-3.018,6.607-6.838,12.66-12.484,17.373c-0.549,0.475-1.109,1.055-1.41,1.695
			c-1.551,3.254-5.807,4.793-8.684,2.785c-1.172-0.811-2.449-1.375-3.611-2.172c-4.18-2.947-4.371-7.535-4.871-11.906
			c-0.256-2.332,0.16-4.719,0.086-7.088c-0.227-6.729,1.977-13.043,3.311-19.515c0.184-0.889,0.879-1.379,1.568-1.766
			c2.037-1.154,3.771-2.652,4.988-4.615c1.701-2.791,4.66-3.488,7.324-4.648c2.738-1.18,5.699-0.654,8.486-0.367
			c2.117,0.219,3.65,2.199,4.352,4.17c1.797,5.045,2.619,10.279,2.309,15.65C610.707,89.204,609.834,92.098,609.929,95.11z"/>
	</g>
	<g>
		<path fill="#FF0000" d="M-92.558,56.714c-2.313-3.257-5.25-4.804-9.001-5.251c-1.025-0.118-2.075-0.049-2.928-0.786
			c-0.803-0.082-1.606-0.169-2.417-0.25c-4.529,0.459-9.073,0.492-13.255,2.996c-7.967,4.768-13.689,11.67-19.018,19.024
			c-2.081,2.88-3.586,5.986-4.014,9.532c-0.743,6.385-2.003,12.705-3.223,18.986c-1.075,5.545-0.107,10.469,1.454,15.559
			c1.22,3.99,4.089,7.004,7.541,8.369c7.07,2.779,14.519,2.123,21.584-0.494c6.225-2.309,11.645-6.076,16.503-10.629
			c1.051-0.977,1.841-2.105,2.6-3.342c4.333-6.98,7.092-14.443,8.363-22.578C-86.678,77.003-85.683,66.437-92.558,56.714z
			 M-106.361,105.362c-0.598,0.949-1.27,1.787-2.028,2.611c-1.437,1.545-2.72,3.607-4.176,4.689
			c-3.102,2.309-6.396,4.992-10.676,4.945c-1.384-0.012-2.79-0.471-4.145-0.857c-2.865-0.807-3.053-3.461-3.771-5.711
			c-0.155-0.506,0.027-1.131-0.144-1.629c-3.928-10.947-0.261-21.303,2.548-31.687c0.64-2.366,2.395-4.396,4.159-6.026
			c3.771-3.492,7.07-7.515,11.408-10.408c1.841-1.238,3.829-2.046,5.979-2.146c3.956-0.184,4.872,0.91,6.405,4.985
			c1.994,5.323,1.663,10.928,1.539,16.784C-100.737,89.112-101.608,97.793-106.361,105.362z"/>
	</g>
	<g>
		<path fill="#FF0000" d="M151.233,72.597c3.25-5.318,7.233-10.088,11.004-15.018c0.252-0.326,0.469-0.65,0.926-0.699
			c1.529-0.186,2.531-1.26,3.411-2.316c4.29-5.115,11.011-4.063,15.357-1.529c1.62,0.945,0.499,2.115,0.466,3.209
			c0.309,1.303-0.418,2.43-0.613,3.646c-0.189,0.475-0.224,0.984-0.322,1.477c-0.195,0.557-0.365,1.115-0.557,1.672
			c-0.176,0.451-0.357,0.904-0.525,1.359c-0.282,0.641-0.397,1.332-0.583,2.004c-0.911,1.287-0.531,3.121-1.777,4.27
			c-0.243,0.633-0.474,1.289-0.321,1.977c0.538,2.449-1.232,3.5-2.863,4.455c-1.657,0.967-3.349,0.586-4.88-0.553
			c-0.357-0.275-0.519-0.586-0.552-1.012c-0.21-2.738-0.182-5.467,0.521-8.152c0.372-1.432,0.619-2.885,0.034-4.328
			c-0.413-0.32-0.139-1.523-1.233-0.965c-3.369,4.051-6.504,8.268-9.585,12.535c-3.876,5.357-5.518,11.683-8.334,17.494
			c-0.167,0.359-0.22,0.768-0.343,1.158c-0.729,2.348-0.902,4.793-2.378,6.988c-1.302,1.945-1.269,4.551-1.47,6.875
			c-0.335,3.734-0.975,7.393-2.182,10.9c-0.542,1.566-2.107,2.703-2.217,4.543c-0.01,0.119-0.426,0.258-0.677,0.318
			c-2.593,0.594-5.192,1.133-7.552,2.502c-0.579,0.34-1.451-0.059-1.978-0.715c-0.727-0.908-0.978-1.936-0.704-3.045
			c1.19-4.822,1.117-9.799,1.861-14.686c0.547-3.584,1.272-7.143,3.119-10.348c0.275-0.455,0.238-0.896,0.175-1.367
			c-0.587-4.113,0.499-8.135,0.779-12.191c0.421-6.183,1.006-12.357,1.675-18.511c0.173-1.596-0.385-1.607-1.619-1.445
			c-1.867,0.242-3.719,0.641-5.631,0.439c-1.225-0.129-2.973-1.898-2.881-3.064c0.159-2.117,2.397-4.285,4.813-4.75
			c2.82-0.539,5.869-0.592,8.351-1.992c2.259-1.27,4.617-1.76,7.028-2.254c2.811-0.584,5.276,0.832,6.355,3.424
			c0.251,0.605,0.155,1.246-0.185,1.758c-2.835,4.281-2.921,9.336-4.066,14.096c-0.067,0.338-0.118,0.672-0.179,1.01
			C150.53,72.597,150.53,72.597,151.233,72.597z"/>
		<g>
			<path fill="#FF0000" d="M189.59,118.696c0.548-3.424,1.245-6.799,2.315-10.09c0.766-2.373,1.527-4.719,1.545-7.295
				c0.025-3.188,1.221-6.217,1.648-9.373c0.676-4.959,0.529-10.008,1.705-14.906c0.07-0.301,0.102-0.875-0.013-0.932
				c-2.21-0.965-0.911-2.699-0.693-3.941c0.575-3.26,1.433-6.479,2.276-9.686c0.383-1.455-0.037-1.703-1.342-1.254
				c-3.067,1.051-6.146,1.154-9.271,0.252c-1.222-0.357-1.661-0.834-0.901-1.979c1.272-1.887,2.033-4.379,5.061-4.18
				c0.78,0.047,0.949-0.912,1.471-1.201c1.468-0.834,3.027-1.496,4.801-1.396c2.436,0.139,4.672-0.094,6.754-1.793
				c1.676-1.381,3.779-0.494,5.498,0.389c1.035,0.531,1.738,1.648,2.812,2.26c0.338,0.195,0.558,0.615,0.259,1.201
				c-2.348,4.6-3.384,9.643-4.389,14.619c-0.808,4.029-1.605,8.088-2.225,12.158c-0.864,5.668-1.742,11.328-2.514,16.996
				c-0.558,4.037-1.467,7.992-2.539,11.908c-0.338,1.248-0.208,1.539,1.258,1.402c3.4-0.318,6.857-0.512,10.199,0.336
				c2.078,0.535,3.36,2.645,3.188,4.584c-0.052,0.566-0.517,0.969-0.985,1.213c-6.158,3.01-12.733,4.818-19.334,6.531
				c-1.452,0.377-2.934-0.645-4.379-1.088c-0.37-0.125-0.426-0.594-1.048-0.125c-0.587,0.459-1.28-0.113-1.271-0.99
				C189.491,121.122,189.553,119.917,189.59,118.696z"/>
			<path fill="#FF0000" d="M216.593,28.216c0.141,3.439-1.338,6.258-3.642,8.355c-2.354,2.135-5.378,3.318-8.725,2.525
				c-1.39-0.328-3.288,0.156-4.036-1.311c-0.968-1.898-1.67-4.031-1.477-6.236c0.258-2.924,1.21-5.66,2.687-8.205
				c0.406-0.695,0.814-1.404,1.133-2.145c0.962-2.275,2.44-2.984,4.903-3.035c1.851-0.037,3.386,0.545,4.935,1.295
				c3.636,1.762,4.779,3.857,4.366,7.854C216.698,27.64,216.632,27.968,216.593,28.216z"/>
		</g>
		<g>
			<path fill="#FF0000" d="M24.404,122.614c2.534-7.787,4.003-15.818,5.297-23.902c0.351-2.178,0.798-4.496,1.565-6.723
				c0.639-1.875,0.761-4.432,0.595-6.719c0.617-2.859,0.577-5.72,0.173-8.609c1.061-3.35,1.638-6.799,1.828-10.299
				c0.089-1.549-0.698-2.105-2.301-1.92c-2.227,0.262-4.402,0.893-6.747,0.205c-1.878-0.547-2.256-1.83-2.534-3.355
				c-0.294-1.672-0.115-3.18,1.426-4.277c2.772-1.965,6.028-2.213,9.233-2.654c3.258-0.453,6.481-0.973,9.369-2.783
				c2.021-1.262,6.148,1.08,6.338,3.576c0.176,2.492,0.33,5.014-0.151,7.492c-0.776,4.029-1.948,7.957-3.01,11.92
				c-1.448,5.379-3.571,10.66-3.829,16.316c-0.339,7.242-2.196,14.299-2.56,21.541c-0.072,1.43,0.111,1.723,1.477,1.75
				c2.349,0.053,4.653,0.486,7.058,0.25c2.022-0.199,2.516,1.807,2.734,3.191c0.246,1.602-0.765,3.051-2.376,3.59
				c-1.394,0.461-2.89,0.662-4.363,0.811c-2.356,0.213-4.602,0.809-6.896,1.318c-1.555,0.342-2.297,1.572-3.526,2.248
				c-2.45,1.334-4.942,0.314-7.401,0.4C24.827,125.094,23.802,124.188,24.404,122.614z"/>
			<path fill="#FF0000" d="M41.269,40.032c-2.092,0.336-2.922-1.197-3.891-2.494c-2.319-3.135-3.761-6.664-3.489-10.547
				c0.305-4.299,3.008-6.059,7.391-7.113c0.853-0.205,1.741-0.252,2.611-0.326c2.83-0.256,4.941,0.797,6.433,3.281
				c2.76,4.605,1.903,8.928-0.47,13.402C47.88,39.962,44.432,39.53,41.269,40.032z"/>
		</g>
		<path fill="#FF0000" d="M2.855,96.85c-0.937-1.176-0.201-2.447-0.142-3.68c0.092-2.025-0.03-4.109,0.829-6.047
			c0.77,1.016-0.037,2.057,0.007,2.764c-0.023-0.121,0.034-0.436,0.607-0.285C3.975,92.075,3.499,94.483,2.855,96.85z"/>
		<path fill="#FF0000" d="M3.961,86.426c-0.277-0.117-0.452-0.355-0.363-0.629c0.971-2.885,1.129-5.986,2.329-8.814
			c-0.371,3.016-0.747,6.027-1.116,9.029C4.362,85.805,4.199,86.192,3.961,86.426z"/>
		<path fill="#FF0000" d="M32.032,76.675c0.962,0.605,0.96,1.482,0.704,2.447c-0.53,2.018,0.181,4.212-0.876,6.148
			c-0.096-2.318,0.333-4.648-0.208-6.978C31.566,77.872,30.921,76.96,32.032,76.675z"/>
		<path fill="#FF0000" d="M178.018,70.677c0.347-1.525,0.84-2.99,1.516-4.4c0.206-0.25,0.359-0.596,0.787-0.379
			c-0.33,1.422-1.182,2.688-1.169,4.234C179.164,70.733,178.698,71.087,178.018,70.677z"/>
		<path fill="#FF0000" d="M2.106,105.364c-2.021-1.342-0.47-2.734-0.069-4.111C2.661,102.602,2.225,103.991,2.106,105.364z"/>
		<path fill="#FF0000" d="M223.656,112.553c0.948,1.709,2.085,3.314,2.729,5.186C224.819,116.352,223.635,114.77,223.656,112.553z"
			/>
		<path fill="#FF0000" d="M-44.639,82.52c0.125-0.004,0.252-0.006,0.378,0.004c0.31,0.967,0.273,1.922-0.048,2.893
			c-0.228,0.701-0.608,0.537-1.053,0.277C-45.458,84.557-45.222,83.497-44.639,82.52z"/>
		<path fill="#FF0000" d="M181.301,59.876c0.368-1.217,0.736-2.428,1.104-3.639c1.311,0.91,0.094,1.936,0.131,2.906
			C182.13,59.397,182.247,60.536,181.301,59.876z"/>
		<path fill="#FF0000" d="M180.329,65.892c-0.262,0.123-0.523,0.252-0.787,0.379c0.102-0.699-0.123-1.471,0.5-2.045
			c0.563-0.234,0.453-0.859,0.75-1.26c0.076-0.291,0.069-0.799,0.508-0.627c0.58,0.23,0.259,0.762,0.152,1.184
			C181.071,64.308,180.703,65.097,180.329,65.892z"/>
		<path fill="#FF0000" d="M2.314,113.182c-0.499,0.252-1.214,0.488-1.135-0.342c0.081-0.873-0.761-2.254,0.957-2.543
			C2.386,111.245,1.414,112.274,2.314,113.182z"/>
		<path fill="#FF0000" d="M-7.599,105.051c-0.387,1.193-1.405,2.164-1.208,3.547c-0.634-0.395-0.001-1.262-0.606-1.668
			c0.489-0.893,0.972-1.799,1.456-2.705C-7.174,104.208-7.51,104.686-7.599,105.051z"/>
		<path fill="#FF0000" d="M24.404,122.614c-0.244,1.416,1.2,2.156,1.388,3.393C23.467,125.637,23.849,124.167,24.404,122.614z"/>
		<path fill="#FF0000" d="M4.149,89.602c-0.205,0.25-0.417,0.5-0.894,1.074c0.109-1.389,0.194-2.471,0.28-3.553l-0.019-0.027
			c0.308-0.188,0.587-0.193,0.835,0.105C4.281,88.004,4.218,88.797,4.149,89.602z"/>
		<path fill="#FF0000" d="M2.185,109.065c-2.081-1.094-0.109-2.242-0.041-3.367C2.582,106.809,2.135,107.944,2.185,109.065z"/>
		<path fill="#FF0000" d="M272.756,106.688c0.491-1.861,0.785-2.129,1.664-1.568C274.248,106.049,273.982,106.877,272.756,106.688z"
			/>
		<path fill="#FF0000" d="M270.314,111.346c0.525-0.939,0.479-2.273,1.788-2.701c0.183,0.799-0.31,1.385-0.611,2.025
			C271.16,111.002,271.014,111.655,270.314,111.346z"/>
		<path fill="#FF0000" d="M181.446,63.522c-0.058-0.289-0.121-0.58-0.178-0.869c-0.133,0.268-0.261,0.525-0.395,0.789
			c-0.367,0.047-0.574-0.031-0.343-0.449c0.161-0.531,0.329-1.061,0.49-1.592c0.297-0.141,0.591-0.143,0.866,0.068
			C181.799,62.169,182.044,62.929,181.446,63.522z"/>
		<path fill="#FF0000" d="M269.656,113.477c0.136-0.309,0.257-0.646,0.387-0.953c0.178-0.133,0.327-0.096,0.447,0.061
			c-0.092,1.016-0.57,1.842-1.355,2.871C268.883,114.438,269.22,113.946,269.656,113.477z"/>
		<path fill="#FF0000" d="M168.74,62.085c-0.058-0.357-0.483-0.771,0.036-1.051c0.418-0.227,0.818-0.006,0.936,0.449
			c0.141,0.506,0.178,1.041,0.262,1.572C169.561,62.728,169.153,62.409,168.74,62.085z"/>
		<path fill="#FF0000" d="M181.887,61.47c-0.285-0.023-0.575-0.047-0.866-0.068c0.101-0.512,0.186-1.012,0.279-1.523
			c0.604,0.08,0.823-0.494,1.234-0.734C182.314,59.923,182.1,60.694,181.887,61.47z"/>
		<path fill="#FF0000" d="M270.49,112.584c-0.145-0.025-0.295-0.037-0.447-0.061c-0.195-0.455-0.047-0.844,0.272-1.176
			c0.39-0.223,0.787-0.457,1.177-0.678C271.378,111.43,271.215,112.163,270.49,112.584z"/>
		<path fill="#FF0000" d="M151.233,72.597c-0.032,0.412-0.293,1.033-0.568,0.805c-0.644-0.506-0.202-1.139,0.236-1.639
			C150.971,72.054,150.863,72.417,151.233,72.597z"/>
		<path fill="#FF0000" d="M4.351,87.202c-0.283-0.037-0.559-0.072-0.835-0.107c-0.039-0.348,0.205-0.488,0.445-0.668
			c0.056-0.303,0.028-0.783,0.208-0.887c0.349-0.201,0.39,0.361,0.647,0.475C4.659,86.415,4.509,86.813,4.351,87.202z"/>
		<path fill="#FF0000" d="M14.373,116.749c-0.411-0.377-0.479-0.756-0.227-1.268c0.733-1.457-0.291-1.711-1.368-1.955
			c-3.468-0.777-6.949-0.865-10.465-0.344c-1.419-0.885-0.688-1.902-0.178-2.885c0.021-0.424,0.031-0.822,0.052-1.246
			c-1.023-1.104,0.336-2.246-0.041-3.365c0.021-0.104,0.017-0.211-0.04-0.336c-1.071-1.346,0.135-2.74-0.068-4.111
			c0.273-1.455,0.536-2.922,0.81-4.389c0.015-3.07,0.619-6.078,0.858-9.131c0.069-0.205,0.152-0.412,0.229-0.631
			c0.098-0.311,0.229-0.621,0.255-0.951c0.324-3.096,1.191-6.099,1.73-9.154c-0.226-0.934-0.279-1.855-0.177-2.818
			c0.704-6.396,2.246-12.65,3.23-19.006c0.305-2.016,1.141-3.863,0.884-6.088c-0.269-2.402-0.334-4.959,0.298-7.414
			c0.562-2.16,1.172-4.33,1.417-6.535c0.571-4.875,1.192-9.746,2.26-14.527c0.223-0.982-0.606-2.688,1.31-3.053
			c0.047-0.002,0.067-0.852-0.042-0.896c-1.675-0.586-2.174-2.775-4.333-2.879c-2.073-0.087-3.918-0.445-6.035,0.525
			c-3.454,1.589-7.341,1.602-11.108,1.827c-3.727,0.225-5.931,2.329-6.165,5.972c-0.025,0.324-0.188,0.789,0.217,0.875
			c1.939,0.432,3.156,2.527,5.514,2.127c1.778-0.301,3.656-0.018,5.469-0.188c1.152-0.107,1.426,0.289,1.38,1.313
			c-0.088,1.627-0.144,3.248-0.153,4.883c-0.041,7.697-2.838,15.213-1.571,23.01c0.175,1.066-0.525,1.102-1.434,0.98
			c-3.15-0.418-6.218-1.529-9.419-1.469c-4.904,0.094-9.933-1.699-14.645,1.592c-2.708,1.891-5.181,3.852-6.902,6.65
			c-3.061,4.943-5.404,10.244-7.802,15.531c0.31,2.217-2.237,3.105-2.37,5.128c-0.05,0.051-0.101-0.008-0.147,0.002
			c-0.153,1.104,0.116,2.322-0.954,3.168c-0.105,0.668-0.055,1.391-0.328,1.98c-2.642,5.707-3.45,11.756-3.679,17.957
			c-0.154,4.322,1.146,8.396,1.614,12.594c0.247,2.172,1.238,3.607,2.85,4.822c0.69,0.52,1.5,1.035,1.943,1.734
			c1.269,2.039,3.203,2.617,5.378,2.83c4.314,0.418,8.295-0.863,12.057-2.721c1.542-0.754,3.358-1.303,4.485-2.689
			c4.012-4.961,8.766-9.385,11.607-15.262c0.665-0.506,1.104-1.188,1.481-1.928c-0.265-0.021,0.069,0.137,0.011-0.133
			c-0.059-0.273,0.113-0.098,0.021,0.16c-0.042,0.115-0.118,0.217-0.165,0.32c-0.799,0.945-1.031,2.029-0.74,3.236
			c0.393,0.922,0.21,1.877,0.026,2.781c-0.731,3.648-0.289,7.391-0.797,11.061c-0.146,1.092,0.16,2.963,1.191,2.924
			c1.608-0.072,2.991,0.502,4.488,0.646c5.387,0.529,10.042-2.293,15.102-3.264c0.903-0.168,1.756-0.699,2.588-1.141
			C16.108,120.368,16.321,118.51,14.373,116.749z M-6.219,80.761c-0.063,0.393-0.127,0.853-0.361,1.14
			c-3.154,3.857-4.204,8.666-5.803,13.191c-1.999,5.65-5.495,10.371-8.681,15.305c-1.511,2.326-3.304,4.418-5.557,6.115
			c-2.714,2.059-4.627,1.191-5.857-2.004c-1.251-3.26-2.138-6.533-2.579-9.969c-1.279-0.727-0.537-2.023-0.857-3.031
			c0.168-6.873,0.799-13.709,3.299-20.143c2.231-5.724,4.87-11.298,7.539-16.843c0.898-1.859,2.473-2.967,4.956-2.596
			c3.33,0.5,6.774,0.057,10.089,0.896c0.424,0.109,1.137-0.162,1.229,0.436c0.367,2.172,2.346,2.016,3.732,2.561
			c1.018,0.395,1.154,0.791,0.991,1.758C-4.828,71.966-5.501,76.364-6.219,80.761z"/>
		<path fill="#FF0000" d="M-35.914,101.522c0.912,0.828-0.087,2.199,0.857,3.029C-36.912,103.979-35.943,102.622-35.914,101.522z"/>
		<path fill="#FF0000" d="M-7.599,105.051c-0.063-0.297-0.023-0.639-0.36-0.826c0.073-0.34,0.372-0.768,0.6-0.537
			C-6.96,104.106-7.234,104.643-7.599,105.051z"/>
		<path fill="#FF0000" d="M101.093,76.038c-0.968-1.285,1.029-1.775,0.771-2.877c0.57,1.107-0.11,2.324,0.441,3.328
			C101.282,77.429,102.101,75.024,101.093,76.038z"/>
		<path fill="#FF0000" d="M85.424,63.356c-0.605,1.031-1.128,0.4-1.654-0.084C84.317,63.411,84.924,62.384,85.424,63.356z"/>
		<g>
			<path fill="#FF0000" d="M89.964,42.495c-1.797-0.154-2.785-0.512-2.329-2.158c0.103-0.373,0.132-0.906-0.06-1.188
				c-1.75-2.576,0.025-4.367,1.531-5.938c4.784-4.973,9.746-9.764,14.426-14.842c1.358-1.471,3.014-2.992,5.447-2.176
				c0.174,0.06,0.408,0.045,0.59,0.001c2.209-0.618,3.588,0.186,4.812,2.212c0.757,1.258,1.103,2.783,2.481,3.75
				c0.744,0.52,0.698,2.113-0.299,2.361c-3.176,0.773-5.084,3.301-7.478,5.094c-3.854,2.883-7.94,5.398-11.919,8.072
				c-0.863,0.58-1.522,1.199-2.136,2.064C93.725,41.636,91.165,41.247,89.964,42.495z"/>
			<path fill="#FF0000" d="M122.708,115.387c-2.958-1.855-6.025-2.549-9.484-1.744c-2.775,0.646-4.842-1.471-3.967-4.152
				c1.529-4.73,1.579-9.75,3.041-14.486c0.15-0.469,0.128-1.199-0.15-1.553c-1.134-1.445-0.568-2.969-0.385-4.471
				c0.125-1.078,0.42-2.119,0.525-3.201c0.539-5.509,2.104-10.845,2.813-16.341c0.635-4.938,3.173-9.412,4.126-14.344
				c0.354-1.879-0.256-2.486-1.617-3c-1.071-0.41-2.189-0.719-3.305-1.002c-0.37-0.094-0.797-0.006-1.189,0.004
				c0.037,1.969-1.064,0.447-1.584,0.459c-0.879,0.018-1.998-0.885-2.57,0.254c-1.096,2.166-2.189,2.236-3.643,0.4
				c-0.18-0.227-0.625-0.238-0.95-0.332c-5.131-1.508-10.304-1.879-15.627-0.965c-6.385,1.096-10.967,4.947-14.744,9.707
				c-2.538,3.203-4.143,7.123-6.351,10.611c-2.78,4.422-3.921,9.545-6.219,14.187c-1.543,3.137-1.911,6.881-2.691,10.381
				c-1.686,7.496-1.081,14.828,1.219,22.158c0.749,2.398,1.982,4.117,4.145,4.846c1.865,0.625,3.858,1.299,5.78,1.449
				c5.034,0.371,10.017-0.207,14.619-2.529c1.536-0.77,3.412-1.381,3.916-3.24c0.219-0.846,0.596-1.229,1.188-1.674
				c3.109-2.348,5.986-4.885,7.025-8.885c0.572-0.924,1.15-1.861,1.735-2.787c0.269-0.457,0.532-0.928,0.938-1.611
				c0.086,0.67,0.229,1.064,0.185,1.447c-0.279,2.609-0.524,5.236-0.909,7.838c-0.477,3.191-0.983,6.342-0.736,9.604
				c0.074,1.082,0.326,1.594,1.469,1.684c2.179,0.186,4.33-0.057,6.422-0.625c4.936-1.326,9.848-2.758,14.778-4.125
				c1.006-0.279,1.927-0.66,2.584-1.498C123.839,116.897,123.936,116.161,122.708,115.387z M100.094,102.297
				c-0.139-0.609,0.135-0.865,0.484-1.092c0.007,0,0.18,0.174,0.188,0.254C100.768,101.846,100.552,102.069,100.094,102.297z
				 M102.813,70.29c-1.055,0.742-0.861,1.842-0.943,2.879c0.773,1.238-1.316,1.697-0.771,2.877c0.492,1.607-0.1,3.049-0.653,4.51
				c-2.554,6.697-5.178,13.347-8.773,19.603c-1.394,2.428-3.093,4.926-5.081,6.393c-2.745,2.029-5.333,4.523-8.617,5.807
				c-2.372,0.916-6.154-1.428-6.63-4.084c-1.541-8.787-1.305-17.525,1.613-25.986c1.533-4.449,3.366-8.835,5.744-12.955
				c0.707-1.227,1.405-2.471,2.042-3.732c0.646-1.289,1.535-2.199,3.04-2.32c0.536,0.361,1.101,0.105,1.654,0.084
				c0.619-0.25,1.248-0.475,1.854-0.754c2.155-0.969,4.266-1.932,6.782-1.412c1.008,0.205,2.167,0,3.209-0.244
				c2.574-0.623,4.754,0.463,6.963,1.445c0.553,0.25,1.078,0.662,1.042,1.371C105.169,66.202,105.094,68.671,102.813,70.29z"/>
		</g>
		<path fill="#FF0000" d="M281.407,72.743c-1.225-3.441-2.307-6.924-3.097-10.457c-1.41-6.242-5.835-9.619-11.1-12.287
			c-0.199-0.102-0.602-0.127-0.731-0.002c-1.358,1.213-2.834,0.539-4.252,0.314c-2.382-0.389-4.758-0.506-7.001,0.475
			c-1.08,0.473-2.153,0.762-3.3,0.883c-1.527,0.166-2.896,0.682-4.124,1.58c-1.7,1.24-3.458,2.402-5.047,3.77
			c-6.742,5.781-13.362,11.713-16.024,20.641c-1.948,6.521-4.461,12.947-3.938,19.98c0.127,1.605,0.17,3.256,0.01,4.865
			c-0.362,3.414,0.167,6.738,0.869,10.049c0.541,1.916,1.615,3.557,2.729,5.186c1.181,1.715,2.528,3.176,4.56,4.027
			c2.707,1.143,5.115,3.404,8.083,3.426c3.579,0.016,7.262,0.014,10.755-1.213c6.408-2.221,11.959-5.971,17.223-10.115
			c0.951-0.748,1.694-0.744,2.649-0.402c0.332-0.16,0.465-0.482,0.608-0.789c0.116-0.471,0.128-0.973,0.438-1.361
			c0.5-0.863,0.689-1.914,1.406-2.668c0.211-0.66,0.436-1.309,0.646-1.969c0.731-0.34,0.609-1.574,1.665-1.559
			c0.145-0.652,0.257-1.322,0.427-1.973c1.058-4.143,3.997-7.553,4.63-11.869c0.186-1.264,0.439-2.557,0.932-3.73
			C282.424,82.711,283.161,77.731,281.407,72.743z M265.624,92.342c-1.789,3.371-3.121,6.908-4.502,10.412
			c-2.338,5.982-6.752,9.639-12.441,12.193c-2.577,1.154-5.027,1.982-7.807,1.072c-0.535-0.797-1.247-1.453-1.797-2.24
			c-0.125-0.275-0.249-0.551-0.375-0.828c-0.93-1.76-1.499-3.652-1.979-5.576c-0.001-0.307,0.015-0.609,0.03-0.479
			c-0.015-0.053-0.115,0.297-0.379,0.596c-0.174,0.105-0.345,0.078-0.478-0.078c-0.933-1.906-0.715-3.922-0.683-5.939
			c0.075-4.234-0.327-8.492,1.218-12.594c0.397-1.072,0.642-2.229,0.147-3.369c-0.407-0.916,0.286-1.531,0.6-2.232
			c0.399-0.854,0.824-1.695,1.225-2.544c1.219-0.713,1.307-2.066,1.799-3.191c1.686-2.664,3.021-5.547,4.604-8.258
			c1.129-1.926,2.865-3.131,3.946-4.963c0.673-1.123,2.175-1.537,2.932-2.717c0.175-0.285,0.696-0.66,1.24-0.48
			c2.734,0.889,5.659,1.127,8.229,2.564c0.744,0.422,1.717,1.002,2.422,0.832c2.052-0.492,2.288,0.738,2.508,2.172
			c0.774,5,2.071,9.994,0.344,15.05c-0.415,1.221,0.272,2.184,0.546,3.27C267.65,87.637,266.81,90.11,265.624,92.342z"/>
		<path fill="#FF0000" d="M235.895,107.43c0.113-0.018,0.222-0.021,0.331,0c0.275-0.111,0.444-0.576,0.845-0.266
			c0.547,1.93,1.092,3.871,1.637,5.803C237.287,111.366,237.069,109.145,235.895,107.43z"/>
		<path fill="#FF0000" d="M240.207,77.544c-0.194,1.291,0.274,2.951-1.8,3.191C238.87,79.589,239.332,78.454,240.207,77.544z"/>
		<path fill="#FF0000" d="M239.083,113.782c1.039,0.387,1.83,0.98,1.797,2.254C239.819,115.659,239.166,114.93,239.083,113.782z"/>
		<path fill="#FF0000" d="M180.531,62.993c0.114,0.152,0.235,0.305,0.343,0.449c-0.354,0.871-0.354,0.871-0.832,0.785
			C180.116,63.778,180.152,63.325,180.531,62.993z"/>
		<path fill="#FF0000" d="M237.073,107.165c-0.28,0.098-0.559,0.168-0.846,0.264c0.084-0.551,0.167-1.102,0.273-1.76
			C237.047,106.139,237.135,106.637,237.073,107.165z"/>
	</g>
</g>
</svg>
