<svg xmlns="http://www.w3.org/2000/svg" xmlns:xlink="http://www.w3.org/1999/xlink" xmlns:sketch="http://www.bohemiancoding.com/sketch/ns" width="1396" height="736" viewBox="0 0 1396 736" version="1.1">
  <title>
    logo
  </title>
  <desc>
    Created with Sketch.
  </desc>
  <g id="Page-1" stroke="none" stroke-width="1" fill="none" fill-rule="evenodd" sketch:type="MSPage">
    <g id="logo" sketch:type="MSLayerGroup" transform="translate(-2.000000, 0.000000)" fill="#FF0000">
      <g id="Group" sketch:type="MSShapeGroup">
        <path d="M335.09 0.9C335.09 0.6 335.11 0.31 335.16 0L340.6 0C340.57 0.35 340.59 0.69 340.62 1.04 338.76 2.65 336.9 2.7 335.09 0.9L335.09 0.9Z" id="Shape"/>
        <path d="M800.59 523.3C797.64 525.79 794.01 526.07 792.05 529.37 798.28 532.38 795.07 538.02 794.68 542.21 793.31 556.61 792.12 571.22 788.6 585.16 784.06 603.15 782.53 621.31 780.53 639.54 779.89 645.25 778.61 650.93 777.58 656.64 776.68 661.71 776.66 666.22 780.33 670.47 781.68 672.03 781.62 674.91 782.06 677.21 782.49 679.59 783.59 680.23 785.84 679.2 791.75 676.39 797.78 674.2 804.37 673.34 806.57 673.06 808.77 670.29 810.33 668.2 818.77 656.92 827.79 646.17 833.49 632.94 837.39 623.9 840.83 614.5 845.23 605.88 854.05 588.61 856.42 570.02 859.53 551.57 861.19 541.68 862.47 531.64 864 521.71 864.76 516.71 869.05 513.94 872.88 512.24 883.5 507.42 894.17 507.59 904.48 515.01 893.43 520.25 895.5 531.07 893.72 539.98 892.1 548.1 891.84 556.54 891.29 564.84 890.26 580.59 886.64 595.95 883.79 611.38 881.69 622.77 880.19 634.29 878.31 645.75 877.93 648.09 877.69 650.08 880.38 651.14 881.57 651.6 881.8 652.77 881.85 653.84 882.22 662.28 883.11 670.79 880.01 679.27 888.91 678.31 897.76 677.64 906.43 676.22 910.73 675.55 913.7 678.1 917.16 679.27 919.11 679.91 918.3 682.64 916.08 683.74 906.77 688.35 897.95 693.82 887.25 695.45 880.4 696.51 874.69 701.54 867.72 703.35 862.03 704.85 856.55 707.33 850.7 708.6 848.93 708.96 847.12 710.13 845.89 707.93 844.78 705.91 842.74 703.53 844.25 701.4 848.31 695.58 847.86 689.2 847.95 682.67 848.04 675.44 848.8 668.2 849.19 660.97 849.26 659.73 850.29 657.67 847.99 657.53 845.98 657.35 843.77 659.23 844.37 660.72 846.29 665.36 843.08 668.27 840.7 670.37 830.5 679.27 823.87 691.65 812.11 698.99 801.93 705.34 791.59 711.3 780.34 715.3 768.72 719.42 761.68 715.7 752.92 707.36 740.31 695.34 737.83 680.83 740.9 665.54 743.56 652.35 746.2 639.12 748.27 625.81 751.06 608.11 751.96 590.17 753.31 572.29 753.7 566.9 754.62 561.51 755.19 556.11 755.4 554.24 756.58 552.46 752.46 552.67 744.74 553.07 736.96 551.75 729.21 552.96 726.94 553.31 725.4 552.35 724.42 550.3 723.43 548.24 723.52 546.5 725.43 544.98 726.55 544.05 727.22 542.74 727.45 541.25 728.04 537.35 730.61 534.9 733.75 532.92 749.87 522.84 767.62 518.2 786.47 518.13 791.25 518.09 795.97 520.14 800.59 523.3L800.59 523.3Z" id="Shape"/>
        <path d="M1215.79 515.29C1207.68 524.62 1200.15 532.84 1193.12 541.5 1188.46 547.21 1184.13 553.14 1179.17 558.67 1173.32 565.23 1169.34 573.78 1167.82 582.43 1165.39 596.02 1160.81 608.86 1156.56 621.84 1154.18 629.01 1155.39 636.56 1154.91 643.97 1154.36 652.1 1154.68 660.29 1154.86 668.48 1154.94 673.13 1153.31 677.35 1152.34 681.75 1151.95 683.63 1150.69 685.15 1148.93 685.76 1142.85 687.92 1136.68 689.98 1130.07 688.67 1121.68 687 1117.83 679.26 1119.82 670.89 1121.61 663.41 1122.48 655.57 1122.74 647.84 1123.52 625.6 1126.54 603.54 1127.9 581.33 1129.08 562.18 1130.42 543.06 1129.47 523.8 1129.36 521.39 1128.44 521.56 1126.54 521.67 1120.37 521.92 1114.23 523.13 1107.97 521.28 1103.91 520.15 1100.59 518.16 1100.61 514.22 1100.65 510.64 1103.11 507.02 1106.82 505.6 1110.82 504.08 1114.12 501.99 1117.05 498.83 1121.29 494.25 1127.49 493.76 1133.16 492.37 1139.96 490.64 1147.04 491.81 1153.97 490.64 1161.56 489.32 1165.39 493.26 1167.44 500.6 1170.79 512.49 1166.24 523.09 1163.27 534.02 1162.56 536.64 1161.7 539.16 1162.19 542.53 1167.92 537.14 1172.23 531.04 1176.17 524.86 1182.18 515.43 1187.11 505.36 1194.49 496.81 1198.32 492.38 1200.05 486.13 1206.23 483.72 1207.79 483.15 1209.23 482.27 1210.87 482.69 1219.72 485.07 1228.78 485.49 1237.86 485.92 1247.42 486.38 1251.34 491.49 1249 500.71 1247.33 507.34 1245.9 513.97 1243.63 520.5 1241.44 526.85 1242.84 533.7 1242.13 540.33 1241.53 545.86 1239.49 548.98 1234.79 550.93 1233.46 551.47 1232.17 552.18 1230.77 552.46 1226.87 553.31 1222.56 554.8 1218.99 553.17 1214.03 550.83 1217.77 546.08 1217.89 542.6 1218.24 533.94 1218.16 525.36 1215.79 515.29L1215.79 515.29Z" id="Shape"/>
        <path d="M639.02 573.1C646.63 559.16 656.42 546.82 666.79 534.9 673.99 526.63 682.55 522.09 694.24 524.75 700.07 526.07 706.42 525.89 712.47 525.5 716.71 525.18 716.78 527.16 716.76 530.14 716.71 543.8 713.39 556.96 710.39 570.15 709.85 572.6 709.39 575.09 708.98 577.49 707.19 587.93 699.4 592.5 691.26 596.93 688.6 598.39 687.61 597.32 686.6 594.7 684.7 589.8 684.4 584.84 684.86 579.73 685.5 572.99 686.25 566.25 686.39 559.16 680.46 570.68 668.71 577.1 662.73 588.88 655.1 603.96 647.68 619.28 636.98 632.68 633.15 637.47 633.81 644.39 632.44 650.32 628.56 667.38 629.2 684.9 628.49 702.21 628.01 713.59 623.2 722.6 617.01 731.19 614.53 734.59 610.4 737.71 605.99 732.68 605.42 732.04 604.94 731.26 603.79 732 598.59 735.41 597.42 729.91 596.76 727.71 593.52 716.85 592.52 705.61 594.72 694.47 597.21 681.92 598.91 669.19 601.57 656.81 604.78 641.91 605.33 626.97 605.75 612.12 606.14 598.03 607.29 583.92 606.55 569.76 606.33 565.76 604.85 565.79 601.97 566.61 594.63 568.7 587.18 570.05 579.51 569.84 576.1 569.76 574.26 568.38 573.3 565.05 571.38 558.52 573.87 552.06 579.35 548.16 587.49 542.34 596.67 539.29 606.14 536.71 611.37 535.29 616.69 533.86 621.2 530.64 622.56 529.68 623.78 529.61 625.27 529.89 626.87 530.21 628.48 530.53 630.1 530.53 641.61 530.6 641.23 530.53 639.43 542.52 638.26 550.36 638.34 558.38 637.88 566.32 637.21 568.42 637.49 570.58 637.63 572.74 637.69 573.92 638.42 573.53 639.02 573.1L639.02 573.1Z" id="Shape"/>
        <path d="M531.25 349.76C538.81 334.88 548.44 321.32 557.46 307.37 558.06 306.44 558.58 305.53 559.79 305.3 563.83 304.49 566.27 301.41 568.4 298.41 578.78 283.85 596.94 285.26 609.06 291.1 613.59 293.28 610.84 296.64 610.98 299.57 612.08 302.98 610.38 306.14 610.11 309.43 609.7 310.73 609.72 312.1 609.56 313.44 609.16 314.96 608.82 316.49 608.43 318.01 608.05 319.26 607.66 320.51 607.31 321.76 606.69 323.52 606.53 325.39 606.18 327.22 604.01 330.85 605.41 335.67 602.33 338.99 601.81 340.73 601.33 342.53 601.88 344.33 603.84 350.76 599.33 353.94 595.18 356.83 590.96 359.75 586.37 359.1 582.04 356.37 581.03 355.72 580.53 354.92 580.36 353.79 579.22 346.53 578.72 339.24 580.04 331.93 580.73 328.02 581.08 324.1 579.22 320.36 578.05 319.6 578.53 316.33 575.73 318.05 567.59 329.57 560.1 341.48 552.78 353.52 543.56 368.63 540.51 385.86 534.21 401.96 533.84 402.96 533.79 404.05 533.54 405.12 532.09 411.54 532.14 418.1 528.66 424.28 525.6 429.74 526.24 436.69 526.18 442.93 526.08 452.97 525.14 462.87 522.66 472.48 521.54 476.77 517.6 480.14 517.69 485.07 517.69 485.39 516.61 485.85 515.95 486.06 509.16 488.19 502.33 490.18 496.32 494.33 494.85 495.36 492.44 494.47 490.9 492.84 488.77 490.57 487.88 487.87 488.38 484.86 490.54 471.74 489.3 458.47 490.26 445.27 490.97 435.59 492.16 425.94 496.41 417 497.05 415.72 496.86 414.55 496.59 413.31 494.16 402.46 496.22 391.5 496.11 380.61 495.93 364.02 496.2 347.42 496.69 330.86 496.82 326.56 495.33 326.64 492.07 327.33 487.14 328.37 482.28 329.83 477.13 329.69 473.84 329.6 468.8 325.25 468.8 322.12 468.78 316.44 474.3 310.18 480.65 308.43 488.06 306.4 496.18 305.62 502.51 301.36 508.27 297.5 514.46 295.69 520.79 293.87 528.17 291.72 535.05 294.98 538.48 301.67 539.27 303.23 539.15 304.96 538.35 306.4 531.68 318.42 532.52 331.93 530.46 344.88 530.35 345.79 530.28 346.69 530.2 347.61 529.37 349.91 529.37 349.91 531.25 349.76L531.25 349.76Z" id="Shape"/>
        <g transform="translate(621.032505, 190.078985)" id="Shape">
          <path d="M22.26 274.66C23 265.4 24.16 256.25 26.32 247.24 27.86 240.75 29.41 234.33 28.91 227.45 28.31 218.94 30.86 210.6 31.34 202.09 32.1 188.71 30.65 175.26 32.76 161.94 32.89 161.13 32.85 159.59 32.53 159.46 26.43 157.35 29.53 152.45 29.85 149.09 30.7 140.26 32.32 131.49 33.89 122.76 34.61 118.8 33.43 118.22 30.05 119.69 22.08 123.14 13.89 124.07 5.36 122.31 2.03 121.62 0.75 120.44 2.54 117.22 5.54 111.92 7.05 105.11 15.17 105 17.26 104.97 17.51 102.37 18.84 101.49 22.58 98.96 26.61 96.86 31.36 96.76 37.89 96.61 43.81 95.52 49.01 90.55 53.19 86.52 58.99 88.44 63.76 90.43 66.63 91.63 68.74 94.47 71.74 95.87 72.68 96.32 73.35 97.4 72.68 99.03 67.38 111.8 65.67 125.47 64.04 138.97 62.73 149.89 61.45 160.89 60.66 171.88 59.54 187.19 58.38 202.48 57.52 217.77 56.88 228.66 55.28 239.41 53.24 250.09 52.6 253.49 53.01 254.24 56.89 253.56 65.9 252 75.09 250.76 84.18 252.32 89.84 253.31 93.71 258.67 93.65 263.88 93.63 265.41 92.48 266.58 91.28 267.32 75.48 276.65 58.31 282.86 41.06 288.82 37.26 290.13 33.09 287.72 29.14 286.83 28.13 286.58 27.88 285.34 26.32 286.72 24.85 288.07 22.88 286.69 22.72 284.35 22.51 281.15 22.42 277.92 22.26 274.66L22.26 274.66Z"/>
          <path d="M75.32 27.5C76.41 36.65 73.06 44.48 67.35 50.57 61.52 56.76 53.7 60.55 44.6 59.14 40.82 58.56 35.86 60.25 33.55 56.49 30.58 51.62 28.25 46.08 28.31 40.15 28.38 32.3 30.34 24.8 33.75 17.69 34.69 15.75 35.63 13.77 36.32 11.73 38.41 5.46 42.21 3.26 48.77 2.6 53.7 2.11 57.92 3.34 62.21 5.02 72.28 8.96 75.77 14.31 75.51 25.06 75.48 25.94 75.37 26.83 75.32 27.5L75.32 27.5Z"/>
        </g>
        <g transform="translate(182.026769, 230.236517)" id="Shape">
          <path d="M21.27 279.66C26.4 258.34 28.63 236.59 30.39 214.75 30.86 208.86 31.57 202.58 33.15 196.48 34.46 191.34 34.25 184.49 33.33 178.43 34.37 170.66 33.66 163.03 31.98 155.41 34.11 146.25 34.93 136.92 34.69 127.53 34.61 123.39 32.39 122.06 28.15 122.9 22.26 124.06 16.59 126.2 10.19 124.86 5.06 123.79 3.79 120.45 2.72 116.44 1.59 112.04 1.75 107.98 5.63 104.72 12.62 98.9 21.25 97.55 29.71 95.7 38.31 93.81 46.8 91.74 54.13 86.3 59.26 82.51 70.76 87.89 71.79 94.51 72.79 101.13 73.73 107.83 72.96 114.55 71.74 125.46 69.44 136.19 67.43 146.99 64.7 161.65 60.14 176.19 60.64 191.34 61.26 210.74 57.79 229.97 58.34 249.37 58.44 253.2 58.99 253.94 62.64 253.73 68.92 253.38 75.16 254.05 81.53 252.91 86.89 251.96 88.62 257.21 89.5 260.86 90.49 265.08 88.1 269.16 83.91 270.93 80.29 272.46 76.34 273.31 72.44 274.02 66.19 275.08 60.33 277.14 54.31 278.98 50.23 280.22 48.51 283.66 45.37 285.72 39.11 289.8 32.25 287.6 25.71 288.35 22.92 286.18 19.99 283.98 21.27 279.66L21.27 279.66Z"/>
          <path d="M48.93 55.71C43.42 57.05 40.88 53.13 38.03 49.87 31.18 41.99 26.59 32.87 26.5 22.45 26.41 10.91 33.26 5.65 44.73 1.91 46.96 1.19 49.32 0.88 51.63 0.5 59.13-0.78 64.98 1.59 69.49 7.9 77.82 19.61 76.44 31.33 71.05 43.77 66.56 54.13 57.27 53.7 48.93 55.71L48.93 55.71Z"/>
        </g>
        <path d="M140.38 445.66C137.63 442.71 139.33 439.17 139.23 435.87 139.05 430.44 138.29 424.91 140.17 419.55 142.44 422.1 140.5 425.05 140.77 426.93 140.68 426.61 140.77 425.76 142.33 426.04 142.37 432.68 141.6 439.2 140.38 445.66L140.38 445.66Z" id="Shape"/>
        <path d="M141.14 417.6C140.38 417.35 139.86 416.75 140.04 416 142.03 408.09 141.8 399.79 144.41 391.99 144.05 400.11 143.68 408.23 143.32 416.32 142.08 415.86 141.73 416.93 141.14 417.6L141.14 417.6Z" id="Shape"/>
        <path d="M214.01 385.68C216.7 387.1 216.88 389.44 216.4 392.06 215.41 397.56 217.77 403.27 215.35 408.66 214.61 402.49 215.27 396.18 213.33 390.08 213.01 388.97 211.1 386.67 214.01 385.68L214.01 385.68Z" id="Shape"/>
        <path d="M602.33 339.01C602.93 334.87 603.94 330.85 605.45 326.95 605.95 326.24 606.28 325.28 607.47 325.77 606.89 329.63 604.88 333.19 605.24 337.31 605.4 338.92 604.22 339.96 602.33 339.01L602.33 339.01Z" id="Shape"/>
        <path d="M140.17 468.54C134.49 465.38 138.34 461.34 139.12 457.58 141.07 461.05 140.2 464.85 140.17 468.54L140.17 468.54Z" id="Shape"/>
        <path d="M732.91 441.19C735.8 445.55 739.17 449.6 741.28 454.45 736.81 451.08 733.32 447.11 732.91 441.19L732.91 441.19Z" id="Shape"/>
        <path d="M10.63 417.39C10.96 417.35 11.3 417.32 11.64 417.32 12.67 419.83 12.77 422.39 12.12 425.05 11.66 426.97 10.61 426.61 9.37 426.01 8.87 422.99 9.28 420.12 10.63 417.39L10.63 417.39Z" id="Shape"/>
        <path d="M608.82 309.49C609.54 306.17 610.27 302.86 611 299.55 614.69 301.7 611.66 304.7 611.96 307.28 610.93 308.04 611.48 311.05 608.82 309.49L608.82 309.49Z" id="Shape"/>
        <path d="M607.49 325.75C606.82 326.13 606.14 326.53 605.47 326.93 605.59 325.04 604.83 323.03 606.37 321.37 607.82 320.62 607.4 318.97 608.11 317.85 608.25 317.05 608.12 315.7 609.33 316.06 610.93 316.56 610.18 318.04 609.99 319.19 609.14 321.37 608.32 323.55 607.49 325.75L607.49 325.75Z" id="Shape"/>
        <path d="M142.37 489.36C141.09 490.14 139.23 490.92 139.26 488.68 139.3 486.34 136.76 482.83 141.28 481.69 142.15 484.18 139.78 487.12 142.37 489.36L142.37 489.36Z" id="Shape"/>
        <path d="M114.21 469.74C113.42 473 110.91 475.81 111.72 479.46 109.95 478.54 111.46 476.09 109.76 475.13 110.87 472.65 111.97 470.13 113.07 467.61 115.16 467.4 114.37 468.75 114.21 469.74L114.21 469.74Z" id="Shape"/>
        <path d="M203.3 509.89C202.94 513.72 206.95 515.39 207.71 518.65 201.43 518.16 202.14 514.15 203.3 509.89L203.3 509.89Z" id="Shape"/>
        <path d="M142.31 426.04C141.81 426.75 141.3 427.46 140.15 429.09L140.15 419.56 140.1 419.48C140.88 418.92 141.62 418.85 142.35 419.59 142.33 421.75 142.33 423.88 142.31 426.04L142.31 426.04Z" id="Shape"/>
        <path d="M141.16 478.4C135.38 475.91 140.4 472.43 140.34 469.42 141.75 472.3 140.79 475.42 141.16 478.4L141.16 478.4Z" id="Shape"/>
        <path d="M862.71 415.22C863.63 410.15 864.35 409.37 866.82 410.69 866.55 413.2 866.02 415.47 862.71 415.22L862.71 415.22Z" id="Shape"/>
        <path d="M857.17 428.17C858.37 425.55 857.97 422 861.37 420.58 862.03 422.67 860.84 424.34 860.17 426.11 859.35 427.07 859.1 428.84 857.17 428.17L857.17 428.17Z" id="Shape"/>
        <path d="M609.97 319.2C609.76 318.43 609.53 317.67 609.32 316.91 609.02 317.65 608.73 318.37 608.43 319.1 607.46 319.3 606.89 319.13 607.42 317.97 607.74 316.52 608.07 315.07 608.39 313.62 609.16 313.19 609.94 313.12 610.72 313.62 610.63 315.51 611.44 317.49 609.97 319.2L609.97 319.2Z" id="Shape"/>
        <path d="M855.86 433.99C856.16 433.14 856.41 432.21 856.69 431.36 857.14 430.97 857.54 431.04 857.9 431.43 857.86 434.16 856.76 436.47 854.88 439.38 854 436.72 854.8 435.33 855.86 433.99L855.86 433.99Z" id="Shape"/>
        <path d="M575.76 318.03C575.53 317.09 574.31 316.07 575.64 315.22 576.7 314.52 577.82 315.03 578.23 316.22 578.71 317.54 578.92 318.96 579.26 320.36 578.09 319.57 576.93 318.81 575.76 318.03L575.76 318.03Z" id="Shape"/>
        <path d="M610.72 313.62L608.39 313.62C608.55 312.24 608.68 310.88 608.82 309.5 610.45 309.59 610.91 308.01 611.96 307.28 611.53 309.41 611.12 311.51 610.72 313.62L610.72 313.62Z" id="Shape"/>
        <path d="M857.9 431.43C857.51 431.4 857.1 431.4 856.69 431.36 856.07 430.19 856.39 429.13 857.17 428.17 858.17 427.5 859.18 426.79 860.17 426.11 860.03 428.17 859.74 430.16 857.9 431.43L857.9 431.43Z" id="Shape"/>
        <path d="M639.02 573.1C638.61 573.99 638.2 574.91 637.14 577.18 636.91 572.57 636.87 569.44 637.85 566.36 638.72 568.53 637.3 571.05 639.02 573.1L639.02 573.1Z" id="Shape"/>
        <path d="M1034.7 496.74C1033.28 496.8 1031.88 496.84 1030.46 496.91 1029.96 496.8 1029.34 496.8 1028.97 496.52 1028.35 496.06 1028.95 495.46 1029.34 495.49 1031.17 495.6 1033.17 495.32 1034.7 496.74L1034.7 496.74Z" id="Shape"/>
        <path d="M531.25 349.76C531.25 350.86 530.69 352.58 529.9 352.03 528.08 350.81 529.13 349.03 530.19 347.6 530.44 348.36 530.23 349.35 531.25 349.76L531.25 349.76Z" id="Shape"/>
        <path d="M142.35 419.59C141.58 419.55 140.84 419.52 140.1 419.48 139.92 418.56 140.54 418.13 141.14 417.6 141.23 416.78 141.05 415.51 141.52 415.19 142.4 414.59 142.63 416.08 143.34 416.33 143 417.42 142.68 418.52 142.35 419.59L142.35 419.59Z" id="Shape"/>
        <path d="M1089.99 544.51C1088.94 538.02 1086.19 532.17 1084.95 525.96 1082.33 512.87 1074.63 504.33 1062.63 500.25 1053.77 497.23 1044.41 494.68 1034.71 496.74 1033.28 496.24 1031.86 495.99 1030.47 496.88 1030.21 498.05 1029.48 499.08 1028.33 499.04 1020.59 498.83 1016.73 505.18 1012.53 509.61 1003.97 518.66 997.3 529.4 991.53 540.47 986.48 550.15 981.58 559.84 975.52 569.09 975.22 568.67 975.06 568.49 975.06 568.38 977.51 546.43 980.24 524.51 980.52 502.34 980.61 496.02 982.24 489.89 984.37 483.89 988.15 473.32 991.5 462.64 992.3 451.29 992.88 442.82 992.93 434.23 994.57 425.93 997.53 410.86 988.72 403.66 976.05 401.88 974.01 401.6 972.15 401 970.54 399.79 968.59 398.37 967.01 398.73 964.65 399.4 951.87 403.2 939.5 408.51 926.28 410.72 921.37 411.5 919.22 413.59 920.04 418.56 920.28 419.97 920.43 421.43 920.46 422.88 920.64 427.14 922.59 429.06 926.93 428.03 930.48 427.21 933.58 427.88 936.54 430.22 938.64 431.93 941.44 432.39 944.06 433.13 947.9 434.23 953.28 431.18 955.39 435.19 957.17 438.6 956.26 443.35 956.53 447.53 956.64 448.95 956.81 450.41 956.8 451.83 956.1 484.85 951.82 517.63 951.14 550.61 951.05 555.61 948.23 559.8 948.32 564.51 948.39 568.49 948.5 572.46 948.15 576.43 946.83 591.97 945.4 607.5 944.03 623.04 942.56 640.1 939.14 656.95 938.36 674.12 938.06 680.89 935.87 687.56 934.67 694.3 934.08 697.46 934.56 700.65 936.81 702.85 938.25 704.26 940.71 702.92 942.19 702 951.44 696.39 961.18 696.89 971.52 697.7 979.96 698.38 988.12 701.32 996.79 700.36 1011.19 698.77 1023.53 691.88 1036.35 686.14 1042.91 683.16 1048.2 678.44 1053.11 673.41 1057.7 668.72 1061.33 663.62 1063.13 656.7 1064.54 651.17 1064.44 644.46 1069.03 640.21 1072.29 637.19 1074 633.61 1075.56 629.78 1082.83 611.86 1085.99 593 1088.34 573.91 1089.55 564.2 1091.6 554.59 1089.99 544.51L1089.99 544.51ZM1055.53 556.61C1055.02 568.71 1053.87 580.76 1053.71 592.97 1053.6 600.63 1049.91 607.86 1047.39 615.21 1043.9 625.28 1043.56 636.52 1037.92 645.67 1030.88 656.99 1024.36 669.23 1010.81 674.69 1008.36 675.65 1006.01 676.22 1003.41 675.61 993.75 673.45 984.08 671.11 974.31 669.3 970.17 668.56 970.06 666.89 971.07 663.41 974.79 650.57 978.41 637.77 984.71 625.81 989.78 616.13 990.68 604.92 995.49 595.1 995.88 594.25 996.2 593.18 995.35 592.58 991.28 589.67 994.12 586.44 994.88 583.39 999.3 565.62 1012.4 552.46 1020.08 536.43 1021.89 532.67 1026.61 531.85 1030.39 531.18 1032.37 530.82 1034.09 530.29 1035.81 529.47 1042.8 526.21 1042.85 526.14 1046.35 532.95 1047.45 535.04 1048.17 537.28 1049.1 539.44 1049.52 540.43 1049.91 542 1050.66 542.24 1058.8 544.87 1054.63 551.54 1055.53 556.61L1055.53 556.61Z" id="Shape"/>
        <path d="M175.3 496.34C174.12 495.42 173.86 494.43 174.43 493.01 176.08 488.96 173.29 488.5 170.37 488.08 160.95 486.73 151.64 487.23 142.37 489.36 138.39 487.3 140.13 484.43 141.28 481.69 141.25 480.56 141.2 479.5 141.16 478.36 138.2 475.63 141.59 472.3 140.35 469.39 140.38 469.1 140.35 468.82 140.17 468.5 137.03 465.13 139.95 461.16 139.12 457.54 139.55 453.6 139.94 449.63 140.36 445.66 139.76 437.46 140.74 429.31 140.74 421.11 140.88 420.55 141.05 419.98 141.22 419.38 141.41 418.52 141.69 417.67 141.69 416.78 141.91 408.45 143.59 400.26 144.39 391.99 143.59 389.54 143.26 387.1 143.33 384.51 143.86 367.29 146.66 350.27 147.96 333.1 148.35 327.66 150.19 322.55 149.04 316.67 147.81 310.31 147.1 303.5 148.27 296.82 149.32 290.94 150.49 285.01 150.68 279.08 151.18 265.95 151.82 252.81 153.66 239.83 154.05 237.16 151.48 232.78 156.52 231.41 156.64 231.39 156.52 229.12 156.22 229.02 151.62 227.81 149.83 222.07 144.05 222.25 138.5 222.45 133.5 221.88 128.06 224.92 119.17 229.88 108.8 230.73 98.8 232.13 88.9 233.51 83.46 239.59 83.6 249.36 83.6 250.23 83.26 251.51 84.36 251.65 89.63 252.4 93.32 257.73 99.52 256.17 104.2 254.99 109.28 255.36 114.08 254.52 117.13 253.99 117.95 254.99 118.04 257.73 118.14 262.1 118.34 266.43 118.65 270.8 120.16 291.35 114.28 311.99 119.29 332.54 119.99 335.35 118.12 335.59 115.68 335.46 107.18 335 98.76 332.68 90.23 333.52 77.16 334.79 63.36 331.07 51.48 340.84 44.65 346.46 38.47 352.21 34.46 360.04 27.33 373.87 22.19 388.51 16.9 403.13 18.19 408.98 11.58 411.89 11.65 417.32 11.53 417.46 11.38 417.32 11.26 417.35 11.08 420.33 12.06 423.53 9.38 426.01 9.24 427.81 9.52 429.73 8.92 431.36 3.07 447.15 2.18 463.46 2.87 480.06 3.37 491.62 7.7 502.23 9.83 513.33 10.94 519.08 13.89 522.7 18.44 525.61 20.4 526.85 22.67 528.06 24 529.83 27.81 535.01 33.09 536.14 38.94 536.25 50.54 536.46 60.9 532.2 70.54 526.46 74.5 524.12 79.23 522.27 81.95 518.33 91.61 504.25 103.37 491.45 109.72 475.17 111.38 473.68 112.41 471.76 113.26 469.71 112.55 469.71 113.48 470.06 113.26 469.35 113.05 468.64 113.55 469.07 113.35 469.77 113.26 470.09 113.08 470.38 112.98 470.66 111.05 473.36 110.66 476.3 111.68 479.46 112.93 481.84 112.64 484.42 112.34 486.87 111.15 496.77 113.12 506.66 112.54 516.56 112.37 519.51 113.58 524.44 116.33 524.12 120.6 523.58 124.42 524.83 128.44 524.9 142.93 525.18 154.76 516.67 168.06 513.02 170.43 512.38 172.6 510.78 174.72 509.43 180.69 505.64 180.87 500.64 175.3 496.34L175.3 496.34ZM112.79 404.62C112.7 405.68 112.63 406.92 112.06 407.74 104.45 418.7 102.66 431.75 99.35 444.17 95.2 459.67 86.86 473 79.4 486.84 75.85 493.36 71.51 499.32 65.85 504.32 59.04 510.39 53.75 508.47 49.8 500.21 45.77 491.77 42.72 483.22 40.82 474.14 37.26 472.47 38.96 468.85 37.9 466.23 36.91 447.86 37.15 429.48 42.47 411.78 47.23 396.03 53.1 380.6 59.05 365.24 61.06 360.09 65.03 356.8 71.73 357.27 80.72 357.91 89.82 356 98.85 357.55 100 357.75 101.85 356.87 102.22 358.45 103.65 364.17 108.9 363.34 112.72 364.5 115.52 365.34 115.96 366.37 115.73 368.99 114.65 380.85 113.78 392.74 112.79 404.62L112.79 404.62Z" id="Shape"/>
        <path d="M37.9 466.27C40.51 468.29 38.13 472.15 40.83 474.17 35.75 473.04 38.06 469.21 37.9 466.27L37.9 466.27Z" id="Shape"/>
        <path d="M114.21 469.74C113.98 468.96 114.01 468.04 113.07 467.61 113.19 466.69 113.9 465.48 114.56 466.05 115.71 467.08 115.09 468.57 114.21 469.74L114.21 469.74Z" id="Shape"/>
        <path d="M398.17 369.48C395.31 366.25 400.54 364.52 399.62 361.64 401.38 364.47 399.82 367.86 401.5 370.42 398.97 373.15 400.65 366.56 398.17 369.48L398.17 369.48Z" id="Shape"/>
        <path d="M353.69 338.92C352.29 341.8 350.77 340.22 349.26 339.04 350.75 339.3 352.15 336.43 353.69 338.92L353.69 338.92Z" id="Shape"/>
        <g transform="translate(286.424474, 206.141998)" id="Shape">
          <path d="M75 76.15C70.17 76.11 67.46 75.36 68.33 70.88 68.53 69.86 68.49 68.43 67.93 67.72 62.71 61.21 67.07 56.06 70.76 51.55 82.48 37.28 94.72 23.44 106.14 8.91 109.46 4.7 113.56 0.29 120.22 1.96 120.7 2.08 121.32 1.99 121.8 1.83 127.56-0.28 131.41 1.58 135.1 6.73 137.38 9.93 138.63 13.93 142.51 16.22 144.6 17.45 144.82 21.71 142.21 22.58 133.89 25.31 129.33 32.46 123.32 37.75 113.64 46.25 103.27 53.82 93.21 61.79 91.03 63.52 89.4 65.31 87.95 67.75 84.86 73.06 77.94 72.56 75 76.15L75 76.15Z"/>
          <path d="M177.69 263.81C169.41 259.48 161.07 258.28 152.01 261.15 144.74 263.46 138.78 258.24 140.56 250.9 143.64 237.95 142.72 224.55 145.63 211.6 145.93 210.32 145.72 208.37 144.9 207.49 141.57 203.87 142.76 199.68 142.94 195.64 143.04 192.73 143.61 189.89 143.66 186.98 143.95 172.17 147 157.6 147.74 142.78 148.4 129.47 154.23 116.99 155.74 103.63 156.29 98.54 154.54 97.05 150.79 95.96 147.85 95.09 144.8 94.5 141.77 93.98 140.76 93.81 139.64 94.13 138.59 94.24 139.11 99.49 135.85 95.66 134.46 95.8 132.12 96.03 128.94 93.86 127.65 97.02 125.19 103.03 122.28 103.44 118.02 98.85 117.49 98.28 116.3 98.35 115.41 98.16 101.4 95.22 87.52 95.32 73.51 98.87 56.7 103.14 45.28 114.38 36.2 127.87 30.1 136.96 26.64 147.76 21.48 157.53 14.99 169.91 13.02 183.83 7.86 196.7 4.4 205.4 4.21 215.47 2.86 224.97 -0.06 245.33 3.09 264.77 10.77 283.85 13.27 290.1 16.92 294.42 22.85 295.92 27.95 297.19 33.42 298.57 38.58 298.57 52.09 298.5 65.26 295.92 77.06 288.75 80.99 286.37 85.87 284.35 86.83 279.28 87.23 276.97 88.16 275.87 89.65 274.56 97.45 267.64 104.59 260.27 106.53 249.38 107.86 246.79 109.21 244.16 110.57 241.57 111.19 240.3 111.79 238.99 112.74 237.07 113.11 238.84 113.57 239.87 113.53 240.9 113.34 247.92 113.23 254.98 112.75 262 112.15 270.63 111.46 279.14 112.81 287.79 113.23 290.67 114.01 291.98 117.08 291.98 122.93 292.01 128.62 290.91 134.09 288.96 146.98 284.39 159.78 279.53 172.66 274.85 175.28 273.89 177.66 272.68 179.24 270.31 181.03 267.61 181.13 265.62 177.69 263.81L177.69 263.81ZM114.6 233.63C114.1 232.03 114.77 231.29 115.66 230.61 115.68 230.61 116.17 231.04 116.21 231.25 116.3 232.28 115.77 232.92 114.6 233.63L114.6 233.63ZM115.13 147.63C112.47 149.83 113.22 152.73 113.22 155.51 115.54 158.65 110.06 160.32 111.76 163.35 113.41 167.54 112.13 171.51 110.96 175.53 105.55 193.94 99.95 212.24 91.67 229.69 88.46 236.46 84.45 243.49 79.45 247.82 72.55 253.81 66.17 261.01 57.68 265.13 51.54 268.07 40.95 262.61 39.13 255.62 33.17 232.49 31.96 209.12 37.97 185.92 41.13 173.73 45.1 161.63 50.58 150.14 52.21 146.72 53.81 143.25 55.24 139.75 56.7 136.17 58.88 133.56 62.87 132.92 64.38 133.77 65.83 132.97 67.3 132.8 68.9 132 70.53 131.27 72.09 130.39 77.64 127.36 83.07 124.34 89.89 125.2 92.62 125.54 95.68 124.74 98.41 123.87 105.14 121.67 111.19 124.11 117.29 126.27 118.82 126.82 120.31 127.81 120.36 129.71 120.56 136.23 120.87 142.83 115.13 147.63L115.13 147.63Z"/>
        </g>
        <path d="M878.66 322.8C874.67 313.88 871.05 304.81 868.2 295.55 863.13 279.19 850.61 271.1 836 265.09 835.45 264.85 834.37 264.87 834.05 265.24 830.68 268.76 826.6 267.27 822.77 266.96 816.33 266.43 809.97 266.62 804.19 269.7 801.4 271.19 798.6 272.19 795.57 272.76 791.52 273.52 787.98 275.18 784.89 277.84 780.62 281.51 776.17 284.98 772.22 288.95 755.44 305.8 739.02 323.02 733.79 347.41 729.96 365.22 724.6 382.9 727.48 401.56 728.15 405.82 728.61 410.22 728.52 414.55 728.28 423.73 730.39 432.5 732.96 441.19 734.8 446.18 738.01 450.34 741.33 454.45 744.84 458.78 748.74 462.4 754.34 464.24 761.81 466.72 768.71 472.26 776.63 471.69 786.19 470.98 796.01 470.2 805.08 466.19 821.71 458.92 835.74 447.75 848.91 435.58 851.29 433.38 853.28 433.24 855.9 433.95 856.75 433.45 857.04 432.56 857.35 431.71 857.57 430.43 857.5 429.09 858.24 427.99 859.39 425.58 859.68 422.74 861.43 420.57 861.86 418.76 862.32 416.99 862.74 415.18 864.62 414.12 864.04 410.85 866.86 410.68 867.11 408.9 867.26 407.09 867.58 405.32 869.53 394.04 876.66 384.32 877.44 372.67 877.67 369.26 878.08 365.75 879.15 362.52 883.47 349.2 884.39 335.75 878.66 322.8L878.66 322.8ZM840.66 378.43C836.6 387.8 833.78 397.52 830.84 407.17 825.85 423.63 814.84 434.31 800.2 442.32 793.56 445.94 787.2 448.67 779.59 446.82 777.99 444.81 775.95 443.21 774.32 441.22 773.93 440.51 773.54 439.8 773.15 439.09 770.29 434.59 768.38 429.66 766.69 424.62 766.62 423.81 766.61 422.99 766.68 423.34 766.62 423.2 766.43 424.16 765.79 425.01 765.35 425.33 764.88 425.3 764.5 424.9 761.61 420.01 761.77 414.58 761.43 409.19 760.74 397.88 758.77 386.6 762.03 375.33 762.87 372.38 763.28 369.25 761.72 366.3 760.44 363.94 762.16 362.16 762.85 360.22 763.74 357.86 764.69 355.52 765.58 353.17 768.69 351.01 768.63 347.38 769.71 344.28 773.65 336.81 776.61 328.84 780.27 321.27 782.87 315.89 787.25 312.31 789.75 307.19 791.31 304.05 795.23 302.64 797 299.33 797.41 298.53 798.73 297.42 800.21 297.78 807.7 299.58 815.55 299.6 822.72 302.9 824.79 303.87 827.5 305.22 829.35 304.61 834.72 302.87 835.61 306.1 836.5 309.88 839.62 323.06 844.12 336.12 840.58 349.98 839.72 353.32 841.76 355.75 842.72 358.59 845.08 365.45 843.36 372.23 840.66 378.43L840.66 378.43Z" id="Shape"/>
        <path d="M764.5 424.94C764.8 424.87 765.08 424.84 765.38 424.87 766.09 424.52 766.45 423.24 767.58 423.99 769.44 429.02 771.31 434.09 773.17 439.13 769.04 435.16 767.99 429.27 764.5 424.94L764.5 424.94Z" id="Shape"/>
        <path d="M769.73 344.27C769.48 347.76 771.08 352.09 765.6 353.17 766.59 350.01 767.58 346.89 769.73 344.27L769.73 344.27Z" id="Shape"/>
        <path d="M774.34 441.22C777.19 442.04 779.43 443.46 779.61 446.86 776.7 446.08 774.8 444.27 774.34 441.22L774.34 441.22Z" id="Shape"/>
        <path d="M1393.92 507.91C1391.13 498.86 1387.64 489.64 1377.76 485.24 1375.97 484.46 1374.04 484.46 1372.28 483.22 1356.53 471.94 1339.53 469.07 1321.19 476.2 1319.74 477.86 1317.68 477.93 1315.73 478.36 1304.93 482.09 1296.72 489.85 1288.33 496.95 1280.18 503.86 1273.78 512.66 1267.66 521.49 1263.06 528.16 1259.09 535.54 1256.36 542.74 1248.36 563.67 1244.07 585.59 1247.05 608.29 1247.44 611.34 1246.71 614.67 1247.71 617.44 1251.23 627.23 1255.17 636.88 1259.18 646.45 1261.34 651.64 1264.04 656.42 1268.17 660.47 1277.37 669.47 1289.29 673.41 1300.48 678.77 1302.06 679.55 1303.63 679.09 1305.23 678.59 1310.9 676.89 1316.58 675.36 1321.79 672.28 1328.42 668.34 1335.38 665.01 1342.12 661.25 1349.09 657.38 1353.6 650.85 1358.82 645.14 1367.51 635.67 1375.77 625.67 1380.93 613.75 1390.24 592.43 1396.5 570.48 1397.14 546.82 1397.48 533.59 1397.8 520.5 1393.92 507.91L1393.92 507.91ZM1363.15 582.32C1363.29 583.64 1362.71 585.16 1362.23 586.47 1355.56 604.74 1346.64 621.7 1332.56 635.46 1331.19 636.84 1329.83 638.51 1329.16 640.29 1325.7 649.29 1314.67 654.29 1306.56 649.54 1303.27 647.63 1299.74 646.39 1296.47 644.5 1284.7 637.52 1283.23 625.31 1280.98 613.75 1279.8 607.58 1280.41 601.13 1279.72 594.81 1277.69 576.9 1282.25 559.59 1284.45 542.03 1284.75 539.62 1286.51 538.17 1288.27 536.99 1293.46 533.48 1297.77 529.12 1300.61 523.62 1304.56 515.82 1312.31 513.34 1319.17 509.68 1326.23 505.96 1334.25 506.74 1341.75 506.92 1347.44 507.06 1351.95 512.02 1354.23 517.13 1360.09 530.22 1363.38 544.02 1363.68 558.42 1363.98 566.4 1362.26 574.31 1363.15 582.32L1363.15 582.32Z" id="Shape"/>
        <path d="M607.42 317.97C607.76 318.36 608.11 318.74 608.43 319.1 607.67 321.5 607.67 321.5 606.37 321.37 606.48 320.15 606.48 318.94 607.42 317.97L607.42 317.97Z" id="Shape"/>
        <path d="M368.89 12.65C363.04 5.65 356.07 2.65 347.45 2.31 345.09 2.22 342.71 2.56 340.64 1.04 338.79 1 336.95 0.94 335.09 0.91 324.86 2.76 314.52 3.65 305.44 10.1 288.15 22.39 276.36 39.14 265.54 56.84 261.32 63.78 258.45 71.12 258.11 79.27 257.56 93.95 255.82 108.57 254.17 123.09 252.72 135.92 255.8 146.96 260.27 158.27 263.76 167.14 270.84 173.49 278.95 175.98 295.54 181.04 312.39 178.21 328.01 170.99 341.77 164.61 353.44 155.06 363.69 143.82 365.91 141.41 367.5 138.69 369.01 135.74 377.63 119.07 382.57 101.57 384.01 82.82 385.91 57.81 386.28 33.56 368.89 12.65L368.89 12.65ZM346.17 125.93C344.98 128.2 343.6 130.23 342.02 132.24 339.03 136.02 336.47 140.94 333.35 143.67 326.7 149.48 319.68 156.19 309.93 156.85 306.77 157.07 303.49 156.27 300.33 155.63 293.67 154.31 292.76 148.3 290.72 143.31 290.28 142.18 290.58 140.73 290.1 139.62 279.2 115.39 285.69 91.15 290.23 67 291.26 61.49 294.89 56.55 298.61 52.52 306.58 43.89 313.37 34.14 322.73 26.77 326.7 23.62 331.09 21.43 335.96 20.81 344.94 19.69 347.22 22.01 351.44 31.02 356.94 42.78 357.18 55.61 357.95 68.97 356.07 87.91 355.64 107.84 346.17 125.93L346.17 125.93Z" id="Shape"/>
        <path d="M767.58 423.99C766.86 424.3 766.13 424.55 765.39 424.87 765.49 423.38 765.6 421.89 765.74 420.12 767.3 421.26 767.64 422.57 767.58 423.99L767.58 423.99Z" id="Shape"/>
      </g>
    </g>
  </g>
</svg>
