<svg xmlns="http://www.w3.org/2000/svg" xmlns:xlink="http://www.w3.org/1999/xlink" version="1.1" id="Layer_1" x="0" y="0" width="56.69" height="50.5" viewBox="0 0 56.69 50.5" enable-background="new 0 0 56.693 50.5" xml:space="preserve">
  <path fill="#FFFFFF" d="M54.98 9.97c-1.81 0.81-3.76 1.35-5.8 1.59 2.09-1.25 3.69-3.23 4.45-5.59 -1.95 1.16-4.11 2-6.42 2.45 -1.85-1.96-4.47-3.19-7.38-3.19 -5.58 0-10.11 4.53-10.11 10.11 0 0.79 0.09 1.56 0.26 2.3C21.58 17.22 14.13 13.2 9.15 7.08c-0.87 1.49-1.37 3.23-1.37 5.08 0 3.51 1.78 6.6 4.49 8.41 -1.65-0.05-3.21-0.51-4.58-1.26 0 0.04 0 0.09 0 0.13 0 4.9 3.48 8.98 8.11 9.91 -0.85 0.23-1.74 0.35-2.66 0.35 -0.65 0-1.28-0.06-1.9-0.18 1.29 4.01 5.02 6.94 9.44 7.02 -3.46 2.71-7.81 4.33-12.55 4.33 -0.81 0-1.62-0.05-2.41-0.14 4.47 2.87 9.79 4.54 15.49 4.54 18.59 0 28.76-15.4 28.76-28.76 0-0.44-0.01-0.87-0.03-1.31C51.91 13.78 53.62 12 54.98 9.97z"/>
</svg>
